M48
METRIC,LZ,000.000
;FILE_FORMAT=3:3
;TYPE=PLATED
;Layer: PTH_Through
;EasyEDA v6.5.54, 2026-10-07 21:13:40
;d688497f65834f7bbd16458d2cacf869,4039c5be123041f2956dd00d94aebb74,10
;Gerber Generator version 0.2
;Holesize 1 = 0.889 mm
T01C0.889
;Holesize 2 = 0.915 mm
T02C0.915
;Holesize 3 = 1.000 mm
T03C1.000
;Holesize 4 = 1.200 mm
T04C1.200
;Holesize 5 = 1.501 mm
T05C1.501
%
G05
G90
T01
X050927Y053340
X053467Y053340
X056007Y053340
X057220Y040640
X054680Y040640
X052140Y040640
X049600Y040640
T02
X058675Y032892
X056135Y032892
X053595Y032892
X051055Y032892
X048515Y032892
X045975Y032892
X043435Y032892
X040895Y032892
X038355Y032892
X035815Y032892
X033275Y032892
X030735Y032892
X028195Y032892
X025655Y032892
X023115Y032892
X020575Y032892
X018035Y032892
X015495Y032892
X012955Y032892
X010415Y032892
X010413Y015114
X012953Y015114
X015493Y015114
X018033Y015114
X020573Y015114
X023113Y015114
X025653Y015114
X028193Y015114
X030733Y015114
X033273Y015114
X035813Y015114
X038353Y015114
X040893Y015114
X043433Y015114
X045973Y015114
X048513Y015114
X051053Y015114
X053593Y015114
X056133Y015114
X058673Y015114
T03
X024601Y077597
X022061Y077597
X027141Y077597
X029681Y077597
T04
X073712Y026634
X080212Y026634
X080212Y022134
X073712Y022134
X091746Y026380
X098246Y026380
X098246Y021880
X091746Y021880
T05
X082550Y074930
X088900Y077470
X072009Y055118
X078359Y057658
X093218Y054991
X099568Y057531
M30
