G04 Layer: TopLayer*
G04 EasyEDA v6.5.54, 2026-10-07 21:13:40*
G04 d688497f65834f7bbd16458d2cacf869,4039c5be123041f2956dd00d94aebb74,10*
G04 Gerber Generator version 0.2*
G04 Scale: 100 percent, Rotated: No, Reflected: No *
G04 Dimensions in millimeters *
G04 leading zeros omitted , absolute positions ,4 integer and 5 decimal *
%FSLAX45Y45*%
%MOMM*%

%ADD10C,0.2540*%
%ADD11C,1.0000*%
%ADD12C,0.5000*%
%ADD13C,2.0000*%
%ADD14C,1.5748*%
%ADD15C,1.5240*%
%ADD16C,0.0195*%
%ADD17C,1.6000*%

%LPD*%
G36*
X1000302Y825906D02*
G01*
X978103Y826820D01*
X956716Y829360D01*
X935634Y833628D01*
X914908Y839469D01*
X894740Y846937D01*
X875233Y855980D01*
X856487Y866546D01*
X838606Y878535D01*
X821690Y891844D01*
X805942Y906475D01*
X791362Y922324D01*
X778052Y939241D01*
X766114Y957122D01*
X755650Y975918D01*
X746658Y995476D01*
X739241Y1015695D01*
X733399Y1036421D01*
X729234Y1057503D01*
X726744Y1078890D01*
X725932Y1100683D01*
X725932Y7999323D01*
X726795Y8021878D01*
X729386Y8043265D01*
X733602Y8064347D01*
X739495Y8085074D01*
X746963Y8105241D01*
X756005Y8124748D01*
X766521Y8143494D01*
X778510Y8161375D01*
X791870Y8178292D01*
X806500Y8194040D01*
X822299Y8208619D01*
X839216Y8221929D01*
X857148Y8233867D01*
X875944Y8244331D01*
X895502Y8253323D01*
X915669Y8260740D01*
X936396Y8266582D01*
X957529Y8270748D01*
X978916Y8273237D01*
X1000658Y8274050D01*
X10399318Y8274050D01*
X10421874Y8273186D01*
X10443260Y8270595D01*
X10464342Y8266379D01*
X10485069Y8260486D01*
X10505236Y8253018D01*
X10524744Y8243976D01*
X10543489Y8233460D01*
X10561370Y8221472D01*
X10578287Y8208111D01*
X10594035Y8193481D01*
X10608614Y8177682D01*
X10621924Y8160766D01*
X10633862Y8142833D01*
X10644327Y8124037D01*
X10653318Y8104479D01*
X10660735Y8084312D01*
X10666577Y8063585D01*
X10670743Y8042452D01*
X10673232Y8021066D01*
X10674096Y7999323D01*
X10674096Y1100683D01*
X10673181Y1078077D01*
X10670590Y1056741D01*
X10666374Y1035608D01*
X10660481Y1014933D01*
X10653014Y994765D01*
X10643971Y975207D01*
X10633456Y956462D01*
X10621467Y938580D01*
X10608106Y921715D01*
X10593476Y905916D01*
X10577677Y891336D01*
X10560761Y878027D01*
X10542828Y866140D01*
X10524032Y855624D01*
X10504474Y846632D01*
X10484307Y839216D01*
X10463580Y833424D01*
X10442448Y829259D01*
X10421061Y826769D01*
X10399318Y825906D01*
G37*

%LPC*%
G36*
X10304475Y994664D02*
G01*
X10320324Y994664D01*
X10336022Y996492D01*
X10351363Y1000099D01*
X10366248Y1005535D01*
X10380370Y1012596D01*
X10393527Y1021283D01*
X10405668Y1031443D01*
X10416489Y1042974D01*
X10425938Y1055624D01*
X10433812Y1069289D01*
X10440111Y1083818D01*
X10444632Y1098956D01*
X10447375Y1114501D01*
X10448290Y1130300D01*
X10447375Y1146098D01*
X10444632Y1161643D01*
X10440111Y1176782D01*
X10433812Y1191310D01*
X10425938Y1204976D01*
X10416489Y1217625D01*
X10405668Y1229156D01*
X10393527Y1239316D01*
X10380370Y1248003D01*
X10366248Y1255064D01*
X10351363Y1260500D01*
X10336022Y1264107D01*
X10320324Y1265936D01*
X10304475Y1265936D01*
X10288778Y1264107D01*
X10273436Y1260500D01*
X10258552Y1255064D01*
X10244429Y1248003D01*
X10231272Y1239316D01*
X10219131Y1229156D01*
X10208310Y1217625D01*
X10198862Y1204976D01*
X10190988Y1191310D01*
X10184688Y1176782D01*
X10180167Y1161643D01*
X10177424Y1146098D01*
X10176510Y1130300D01*
X10177424Y1114501D01*
X10180167Y1098956D01*
X10184688Y1083818D01*
X10190988Y1069289D01*
X10198862Y1055624D01*
X10208310Y1042974D01*
X10219131Y1031443D01*
X10231272Y1021283D01*
X10244429Y1012596D01*
X10258552Y1005535D01*
X10273436Y1000099D01*
X10288778Y996492D01*
G37*
G36*
X982675Y1007364D02*
G01*
X998524Y1007364D01*
X1014221Y1009192D01*
X1029563Y1012799D01*
X1044448Y1018235D01*
X1058570Y1025296D01*
X1071727Y1033983D01*
X1083868Y1044143D01*
X1094689Y1055674D01*
X1104138Y1068324D01*
X1112012Y1081989D01*
X1118311Y1096518D01*
X1122832Y1111656D01*
X1125575Y1127201D01*
X1126490Y1143000D01*
X1125575Y1158798D01*
X1122832Y1174343D01*
X1118311Y1189482D01*
X1112012Y1204010D01*
X1104138Y1217676D01*
X1094689Y1230325D01*
X1083868Y1241856D01*
X1071727Y1252016D01*
X1058570Y1260703D01*
X1044448Y1267764D01*
X1029563Y1273200D01*
X1014221Y1276807D01*
X998524Y1278636D01*
X982675Y1278636D01*
X966978Y1276807D01*
X951636Y1273200D01*
X936752Y1267764D01*
X922629Y1260703D01*
X909472Y1252016D01*
X897331Y1241856D01*
X886510Y1230325D01*
X877062Y1217676D01*
X869187Y1204010D01*
X862888Y1189482D01*
X858367Y1174343D01*
X855624Y1158798D01*
X854710Y1143000D01*
X855624Y1127201D01*
X858367Y1111656D01*
X862888Y1096518D01*
X869187Y1081989D01*
X877062Y1068324D01*
X886510Y1055674D01*
X897331Y1044143D01*
X909472Y1033983D01*
X922629Y1025296D01*
X936752Y1018235D01*
X951636Y1012799D01*
X966978Y1009192D01*
G37*
G36*
X1298702Y1409395D02*
G01*
X1312265Y1410766D01*
X1325524Y1413916D01*
X1338224Y1418844D01*
X1350213Y1425397D01*
X1361186Y1433474D01*
X1370990Y1442974D01*
X1379423Y1453642D01*
X1386382Y1465376D01*
X1391716Y1477924D01*
X1395323Y1491081D01*
X1397152Y1504594D01*
X1397152Y1518259D01*
X1395323Y1531772D01*
X1391716Y1544929D01*
X1386382Y1557477D01*
X1379423Y1569212D01*
X1370990Y1579880D01*
X1361186Y1589379D01*
X1350213Y1597456D01*
X1338224Y1604010D01*
X1325524Y1608937D01*
X1312265Y1612087D01*
X1298702Y1613458D01*
X1285036Y1613001D01*
X1271625Y1610715D01*
X1258570Y1606702D01*
X1246225Y1600962D01*
X1234694Y1593596D01*
X1224280Y1584807D01*
X1215136Y1574698D01*
X1207414Y1563471D01*
X1201267Y1551279D01*
X1196797Y1538376D01*
X1194104Y1525016D01*
X1193190Y1511401D01*
X1194104Y1497838D01*
X1196797Y1484477D01*
X1201267Y1471574D01*
X1207414Y1459382D01*
X1215136Y1448155D01*
X1224280Y1438046D01*
X1234694Y1429258D01*
X1246225Y1421892D01*
X1258570Y1416151D01*
X1271625Y1412138D01*
X1285036Y1409852D01*
G37*
G36*
X1044702Y1409395D02*
G01*
X1058265Y1410766D01*
X1071524Y1413916D01*
X1084224Y1418844D01*
X1096213Y1425397D01*
X1107186Y1433474D01*
X1116990Y1442974D01*
X1125423Y1453642D01*
X1132382Y1465376D01*
X1137716Y1477924D01*
X1141323Y1491081D01*
X1143152Y1504594D01*
X1143152Y1518259D01*
X1141323Y1531772D01*
X1137716Y1544929D01*
X1132382Y1557477D01*
X1125423Y1569212D01*
X1116990Y1579880D01*
X1107186Y1589379D01*
X1096213Y1597456D01*
X1084224Y1604010D01*
X1071524Y1608937D01*
X1058265Y1612087D01*
X1044702Y1613458D01*
X1031036Y1613001D01*
X1017625Y1610715D01*
X1004569Y1606702D01*
X992225Y1600962D01*
X980694Y1593596D01*
X970280Y1584807D01*
X961136Y1574698D01*
X953414Y1563471D01*
X947267Y1551279D01*
X942797Y1538376D01*
X940104Y1525016D01*
X939190Y1511401D01*
X940104Y1497838D01*
X942797Y1484477D01*
X947267Y1471574D01*
X953414Y1459382D01*
X961136Y1448155D01*
X970280Y1438046D01*
X980694Y1429258D01*
X992225Y1421892D01*
X1004569Y1416151D01*
X1017625Y1412138D01*
X1031036Y1409852D01*
G37*
G36*
X1806702Y1409395D02*
G01*
X1820265Y1410766D01*
X1833524Y1413916D01*
X1846224Y1418844D01*
X1858213Y1425397D01*
X1869186Y1433474D01*
X1878990Y1442974D01*
X1887423Y1453642D01*
X1894382Y1465376D01*
X1899716Y1477924D01*
X1903323Y1491081D01*
X1905152Y1504594D01*
X1905152Y1518259D01*
X1903323Y1531772D01*
X1899716Y1544929D01*
X1894382Y1557477D01*
X1887423Y1569212D01*
X1878990Y1579880D01*
X1869186Y1589379D01*
X1858213Y1597456D01*
X1846224Y1604010D01*
X1833524Y1608937D01*
X1820265Y1612087D01*
X1806702Y1613458D01*
X1793036Y1613001D01*
X1779625Y1610715D01*
X1766570Y1606702D01*
X1754225Y1600962D01*
X1742693Y1593596D01*
X1732280Y1584807D01*
X1723136Y1574698D01*
X1715414Y1563471D01*
X1709267Y1551279D01*
X1704797Y1538376D01*
X1702104Y1525016D01*
X1701190Y1511401D01*
X1702104Y1497838D01*
X1704797Y1484477D01*
X1709267Y1471574D01*
X1715414Y1459382D01*
X1723136Y1448155D01*
X1732280Y1438046D01*
X1742693Y1429258D01*
X1754225Y1421892D01*
X1766570Y1416151D01*
X1779625Y1412138D01*
X1793036Y1409852D01*
G37*
G36*
X2314702Y1409395D02*
G01*
X2328265Y1410766D01*
X2341524Y1413916D01*
X2354224Y1418844D01*
X2366213Y1425397D01*
X2377186Y1433474D01*
X2386990Y1442974D01*
X2395423Y1453642D01*
X2402382Y1465376D01*
X2407716Y1477924D01*
X2411323Y1491081D01*
X2413152Y1504594D01*
X2413152Y1518259D01*
X2411323Y1531772D01*
X2407716Y1544929D01*
X2402382Y1557477D01*
X2395423Y1569212D01*
X2386990Y1579880D01*
X2377186Y1589379D01*
X2366213Y1597456D01*
X2354224Y1604010D01*
X2341524Y1608937D01*
X2328265Y1612087D01*
X2314702Y1613458D01*
X2301036Y1613001D01*
X2287625Y1610715D01*
X2274570Y1606702D01*
X2262225Y1600962D01*
X2250694Y1593596D01*
X2240280Y1584807D01*
X2231136Y1574698D01*
X2223414Y1563471D01*
X2217267Y1551279D01*
X2212797Y1538376D01*
X2210104Y1525016D01*
X2209190Y1511401D01*
X2210104Y1497838D01*
X2212797Y1484477D01*
X2217267Y1471574D01*
X2223414Y1459382D01*
X2231136Y1448155D01*
X2240280Y1438046D01*
X2250694Y1429258D01*
X2262225Y1421892D01*
X2274570Y1416151D01*
X2287625Y1412138D01*
X2301036Y1409852D01*
G37*
G36*
X3584701Y1409395D02*
G01*
X3598265Y1410766D01*
X3611524Y1413916D01*
X3624224Y1418844D01*
X3636213Y1425397D01*
X3647186Y1433474D01*
X3656990Y1442974D01*
X3665423Y1453642D01*
X3672382Y1465376D01*
X3677716Y1477924D01*
X3681323Y1491081D01*
X3683152Y1504594D01*
X3683152Y1518259D01*
X3681323Y1531772D01*
X3677716Y1544929D01*
X3672382Y1557477D01*
X3665423Y1569212D01*
X3656990Y1579880D01*
X3647186Y1589379D01*
X3636213Y1597456D01*
X3624224Y1604010D01*
X3611524Y1608937D01*
X3598265Y1612087D01*
X3584701Y1613458D01*
X3571036Y1613001D01*
X3557625Y1610715D01*
X3544570Y1606702D01*
X3532225Y1600962D01*
X3520694Y1593596D01*
X3510279Y1584807D01*
X3501136Y1574698D01*
X3493414Y1563471D01*
X3487267Y1551279D01*
X3482797Y1538376D01*
X3480104Y1525016D01*
X3479190Y1511401D01*
X3480104Y1497838D01*
X3482797Y1484477D01*
X3487267Y1471574D01*
X3493414Y1459382D01*
X3501136Y1448155D01*
X3510279Y1438046D01*
X3520694Y1429258D01*
X3532225Y1421892D01*
X3544570Y1416151D01*
X3557625Y1412138D01*
X3571036Y1409852D01*
G37*
G36*
X3838701Y1409395D02*
G01*
X3852265Y1410766D01*
X3865524Y1413916D01*
X3878224Y1418844D01*
X3890213Y1425397D01*
X3901186Y1433474D01*
X3910990Y1442974D01*
X3919423Y1453642D01*
X3926382Y1465376D01*
X3931716Y1477924D01*
X3935323Y1491081D01*
X3937152Y1504594D01*
X3937152Y1518259D01*
X3935323Y1531772D01*
X3931716Y1544929D01*
X3926382Y1557477D01*
X3919423Y1569212D01*
X3910990Y1579880D01*
X3901186Y1589379D01*
X3890213Y1597456D01*
X3878224Y1604010D01*
X3865524Y1608937D01*
X3852265Y1612087D01*
X3838701Y1613458D01*
X3825036Y1613001D01*
X3811625Y1610715D01*
X3798570Y1606702D01*
X3786225Y1600962D01*
X3774694Y1593596D01*
X3764279Y1584807D01*
X3755136Y1574698D01*
X3747414Y1563471D01*
X3741267Y1551279D01*
X3736797Y1538376D01*
X3734104Y1525016D01*
X3733190Y1511401D01*
X3734104Y1497838D01*
X3736797Y1484477D01*
X3741267Y1471574D01*
X3747414Y1459382D01*
X3755136Y1448155D01*
X3764279Y1438046D01*
X3774694Y1429258D01*
X3786225Y1421892D01*
X3798570Y1416151D01*
X3811625Y1412138D01*
X3825036Y1409852D01*
G37*
G36*
X4600702Y1409395D02*
G01*
X4614265Y1410766D01*
X4627524Y1413916D01*
X4640224Y1418844D01*
X4652213Y1425397D01*
X4663186Y1433474D01*
X4672990Y1442974D01*
X4681423Y1453642D01*
X4688382Y1465376D01*
X4693716Y1477924D01*
X4697323Y1491081D01*
X4699152Y1504594D01*
X4699152Y1518259D01*
X4697323Y1531772D01*
X4693716Y1544929D01*
X4688382Y1557477D01*
X4681423Y1569212D01*
X4672990Y1579880D01*
X4663186Y1589379D01*
X4652213Y1597456D01*
X4640224Y1604010D01*
X4627524Y1608937D01*
X4614265Y1612087D01*
X4600702Y1613458D01*
X4587036Y1613001D01*
X4573625Y1610715D01*
X4560570Y1606702D01*
X4548225Y1600962D01*
X4536694Y1593596D01*
X4526280Y1584807D01*
X4517136Y1574698D01*
X4509414Y1563471D01*
X4503267Y1551279D01*
X4498797Y1538376D01*
X4496104Y1525016D01*
X4495190Y1511401D01*
X4496104Y1497838D01*
X4498797Y1484477D01*
X4503267Y1471574D01*
X4509414Y1459382D01*
X4517136Y1448155D01*
X4526280Y1438046D01*
X4536694Y1429258D01*
X4548225Y1421892D01*
X4560570Y1416151D01*
X4573625Y1412138D01*
X4587036Y1409852D01*
G37*
G36*
X2060702Y1409395D02*
G01*
X2074265Y1410766D01*
X2087524Y1413916D01*
X2100224Y1418844D01*
X2112213Y1425397D01*
X2123186Y1433474D01*
X2132990Y1442974D01*
X2141423Y1453642D01*
X2148382Y1465376D01*
X2153716Y1477924D01*
X2157323Y1491081D01*
X2159152Y1504594D01*
X2159152Y1518259D01*
X2157323Y1531772D01*
X2153716Y1544929D01*
X2148382Y1557477D01*
X2141423Y1569212D01*
X2132990Y1579880D01*
X2123186Y1589379D01*
X2112213Y1597456D01*
X2100224Y1604010D01*
X2087524Y1608937D01*
X2074265Y1612087D01*
X2060702Y1613458D01*
X2047036Y1613001D01*
X2033625Y1610715D01*
X2020570Y1606702D01*
X2008225Y1600962D01*
X1996693Y1593596D01*
X1986280Y1584807D01*
X1977136Y1574698D01*
X1969414Y1563471D01*
X1963267Y1551279D01*
X1958797Y1538376D01*
X1956104Y1525016D01*
X1955190Y1511401D01*
X1956104Y1497838D01*
X1958797Y1484477D01*
X1963267Y1471574D01*
X1969414Y1459382D01*
X1977136Y1448155D01*
X1986280Y1438046D01*
X1996693Y1429258D01*
X2008225Y1421892D01*
X2020570Y1416151D01*
X2033625Y1412138D01*
X2047036Y1409852D01*
G37*
G36*
X4346702Y1409395D02*
G01*
X4360265Y1410766D01*
X4373524Y1413916D01*
X4386224Y1418844D01*
X4398213Y1425397D01*
X4409186Y1433474D01*
X4418990Y1442974D01*
X4427423Y1453642D01*
X4434382Y1465376D01*
X4439716Y1477924D01*
X4443323Y1491081D01*
X4445152Y1504594D01*
X4445152Y1518259D01*
X4443323Y1531772D01*
X4439716Y1544929D01*
X4434382Y1557477D01*
X4427423Y1569212D01*
X4418990Y1579880D01*
X4409186Y1589379D01*
X4398213Y1597456D01*
X4386224Y1604010D01*
X4373524Y1608937D01*
X4360265Y1612087D01*
X4346702Y1613458D01*
X4333036Y1613001D01*
X4319625Y1610715D01*
X4306570Y1606702D01*
X4294225Y1600962D01*
X4282694Y1593596D01*
X4272280Y1584807D01*
X4263136Y1574698D01*
X4255414Y1563471D01*
X4249267Y1551279D01*
X4244797Y1538376D01*
X4242104Y1525016D01*
X4241190Y1511401D01*
X4242104Y1497838D01*
X4244797Y1484477D01*
X4249267Y1471574D01*
X4255414Y1459382D01*
X4263136Y1448155D01*
X4272280Y1438046D01*
X4282694Y1429258D01*
X4294225Y1421892D01*
X4306570Y1416151D01*
X4319625Y1412138D01*
X4333036Y1409852D01*
G37*
G36*
X2568702Y1409395D02*
G01*
X2582265Y1410766D01*
X2595524Y1413916D01*
X2608224Y1418844D01*
X2620213Y1425397D01*
X2631186Y1433474D01*
X2640990Y1442974D01*
X2649423Y1453642D01*
X2656382Y1465376D01*
X2661716Y1477924D01*
X2665323Y1491081D01*
X2667152Y1504594D01*
X2667152Y1518259D01*
X2665323Y1531772D01*
X2661716Y1544929D01*
X2656382Y1557477D01*
X2649423Y1569212D01*
X2640990Y1579880D01*
X2631186Y1589379D01*
X2620213Y1597456D01*
X2608224Y1604010D01*
X2595524Y1608937D01*
X2582265Y1612087D01*
X2568702Y1613458D01*
X2555036Y1613001D01*
X2541625Y1610715D01*
X2528570Y1606702D01*
X2516225Y1600962D01*
X2504694Y1593596D01*
X2494280Y1584807D01*
X2485136Y1574698D01*
X2477414Y1563471D01*
X2471267Y1551279D01*
X2466797Y1538376D01*
X2464104Y1525016D01*
X2463190Y1511401D01*
X2464104Y1497838D01*
X2466797Y1484477D01*
X2471267Y1471574D01*
X2477414Y1459382D01*
X2485136Y1448155D01*
X2494280Y1438046D01*
X2504694Y1429258D01*
X2516225Y1421892D01*
X2528570Y1416151D01*
X2541625Y1412138D01*
X2555036Y1409852D01*
G37*
G36*
X4854702Y1409395D02*
G01*
X4868265Y1410766D01*
X4881524Y1413916D01*
X4894224Y1418844D01*
X4906213Y1425397D01*
X4917186Y1433474D01*
X4926990Y1442974D01*
X4935423Y1453642D01*
X4942382Y1465376D01*
X4947716Y1477924D01*
X4951323Y1491081D01*
X4953152Y1504594D01*
X4953152Y1518259D01*
X4951323Y1531772D01*
X4947716Y1544929D01*
X4942382Y1557477D01*
X4935423Y1569212D01*
X4926990Y1579880D01*
X4917186Y1589379D01*
X4906213Y1597456D01*
X4894224Y1604010D01*
X4881524Y1608937D01*
X4868265Y1612087D01*
X4854702Y1613458D01*
X4841036Y1613001D01*
X4827625Y1610715D01*
X4814570Y1606702D01*
X4802225Y1600962D01*
X4790694Y1593596D01*
X4780280Y1584807D01*
X4771136Y1574698D01*
X4763414Y1563471D01*
X4757267Y1551279D01*
X4752797Y1538376D01*
X4750104Y1525016D01*
X4749190Y1511401D01*
X4750104Y1497838D01*
X4752797Y1484477D01*
X4757267Y1471574D01*
X4763414Y1459382D01*
X4771136Y1448155D01*
X4780280Y1438046D01*
X4790694Y1429258D01*
X4802225Y1421892D01*
X4814570Y1416151D01*
X4827625Y1412138D01*
X4841036Y1409852D01*
G37*
G36*
X3330701Y1409395D02*
G01*
X3344265Y1410766D01*
X3357524Y1413916D01*
X3370224Y1418844D01*
X3382213Y1425397D01*
X3393186Y1433474D01*
X3402990Y1442974D01*
X3411423Y1453642D01*
X3418382Y1465376D01*
X3423716Y1477924D01*
X3427323Y1491081D01*
X3429152Y1504594D01*
X3429152Y1518259D01*
X3427323Y1531772D01*
X3423716Y1544929D01*
X3418382Y1557477D01*
X3411423Y1569212D01*
X3402990Y1579880D01*
X3393186Y1589379D01*
X3382213Y1597456D01*
X3370224Y1604010D01*
X3357524Y1608937D01*
X3344265Y1612087D01*
X3330701Y1613458D01*
X3317036Y1613001D01*
X3303625Y1610715D01*
X3290570Y1606702D01*
X3278225Y1600962D01*
X3266694Y1593596D01*
X3256279Y1584807D01*
X3247136Y1574698D01*
X3239414Y1563471D01*
X3233267Y1551279D01*
X3228797Y1538376D01*
X3226104Y1525016D01*
X3225190Y1511401D01*
X3226104Y1497838D01*
X3228797Y1484477D01*
X3233267Y1471574D01*
X3239414Y1459382D01*
X3247136Y1448155D01*
X3256279Y1438046D01*
X3266694Y1429258D01*
X3278225Y1421892D01*
X3290570Y1416151D01*
X3303625Y1412138D01*
X3317036Y1409852D01*
G37*
G36*
X5870702Y1409395D02*
G01*
X5884265Y1410766D01*
X5897524Y1413916D01*
X5910224Y1418844D01*
X5922213Y1425397D01*
X5933186Y1433474D01*
X5942990Y1442974D01*
X5951423Y1453642D01*
X5958382Y1465376D01*
X5963716Y1477924D01*
X5967323Y1491081D01*
X5969152Y1504594D01*
X5969152Y1518259D01*
X5967323Y1531772D01*
X5963716Y1544929D01*
X5958382Y1557477D01*
X5951423Y1569212D01*
X5942990Y1579880D01*
X5933186Y1589379D01*
X5922213Y1597456D01*
X5910224Y1604010D01*
X5897524Y1608937D01*
X5884265Y1612087D01*
X5870702Y1613458D01*
X5857036Y1613001D01*
X5843625Y1610715D01*
X5830570Y1606702D01*
X5818225Y1600962D01*
X5806694Y1593596D01*
X5796280Y1584807D01*
X5787136Y1574698D01*
X5779414Y1563471D01*
X5773267Y1551279D01*
X5768797Y1538376D01*
X5766104Y1525016D01*
X5765190Y1511401D01*
X5766104Y1497838D01*
X5768797Y1484477D01*
X5773267Y1471574D01*
X5779414Y1459382D01*
X5787136Y1448155D01*
X5796280Y1438046D01*
X5806694Y1429258D01*
X5818225Y1421892D01*
X5830570Y1416151D01*
X5843625Y1412138D01*
X5857036Y1409852D01*
G37*
G36*
X3076702Y1409395D02*
G01*
X3090265Y1410766D01*
X3103524Y1413916D01*
X3116224Y1418844D01*
X3128213Y1425397D01*
X3139186Y1433474D01*
X3148990Y1442974D01*
X3157423Y1453642D01*
X3164382Y1465376D01*
X3169716Y1477924D01*
X3173323Y1491081D01*
X3175152Y1504594D01*
X3175152Y1518259D01*
X3173323Y1531772D01*
X3169716Y1544929D01*
X3164382Y1557477D01*
X3157423Y1569212D01*
X3148990Y1579880D01*
X3139186Y1589379D01*
X3128213Y1597456D01*
X3116224Y1604010D01*
X3103524Y1608937D01*
X3090265Y1612087D01*
X3076702Y1613458D01*
X3063036Y1613001D01*
X3049625Y1610715D01*
X3036570Y1606702D01*
X3024225Y1600962D01*
X3012694Y1593596D01*
X3002280Y1584807D01*
X2993136Y1574698D01*
X2985414Y1563471D01*
X2979267Y1551279D01*
X2974797Y1538376D01*
X2972104Y1525016D01*
X2971190Y1511401D01*
X2972104Y1497838D01*
X2974797Y1484477D01*
X2979267Y1471574D01*
X2985414Y1459382D01*
X2993136Y1448155D01*
X3002280Y1438046D01*
X3012694Y1429258D01*
X3024225Y1421892D01*
X3036570Y1416151D01*
X3049625Y1412138D01*
X3063036Y1409852D01*
G37*
G36*
X5108702Y1409395D02*
G01*
X5122265Y1410766D01*
X5135524Y1413916D01*
X5148224Y1418844D01*
X5160213Y1425397D01*
X5171186Y1433474D01*
X5180990Y1442974D01*
X5189423Y1453642D01*
X5196382Y1465376D01*
X5201716Y1477924D01*
X5205323Y1491081D01*
X5207152Y1504594D01*
X5207152Y1518259D01*
X5205323Y1531772D01*
X5201462Y1545742D01*
X5201107Y1549247D01*
X5202021Y1552702D01*
X5204053Y1555597D01*
X5951372Y2302916D01*
X5954674Y2305100D01*
X5958535Y2305862D01*
X7263180Y2305862D01*
X7267549Y2304897D01*
X7271105Y2302103D01*
X7273036Y2298039D01*
X7273086Y2293518D01*
X7271156Y2289454D01*
X7267600Y2284933D01*
X7259726Y2271928D01*
X7253478Y2258009D01*
X7251242Y2254859D01*
X7247991Y2252726D01*
X7244232Y2252014D01*
X6315760Y2252014D01*
X6307734Y2251202D01*
X6300520Y2249017D01*
X6293815Y2245461D01*
X6287617Y2240330D01*
X5657342Y1610055D01*
X5654090Y1607921D01*
X5650331Y1607108D01*
X5646470Y1607769D01*
X5643524Y1608937D01*
X5630265Y1612087D01*
X5616702Y1613458D01*
X5603036Y1613001D01*
X5589625Y1610715D01*
X5576570Y1606702D01*
X5564225Y1600962D01*
X5552694Y1593596D01*
X5542280Y1584807D01*
X5533136Y1574698D01*
X5525414Y1563471D01*
X5519267Y1551279D01*
X5514797Y1538376D01*
X5512104Y1525016D01*
X5511190Y1511401D01*
X5512104Y1497838D01*
X5514797Y1484477D01*
X5519267Y1471574D01*
X5525414Y1459382D01*
X5533136Y1448155D01*
X5542280Y1438046D01*
X5552694Y1429258D01*
X5564225Y1421892D01*
X5576570Y1416151D01*
X5589625Y1412138D01*
X5603036Y1409852D01*
X5616702Y1409395D01*
X5630265Y1410766D01*
X5643524Y1413916D01*
X5656224Y1418844D01*
X5668213Y1425397D01*
X5679186Y1433474D01*
X5688990Y1442974D01*
X5697423Y1453642D01*
X5704382Y1465376D01*
X5709716Y1477924D01*
X5713323Y1491081D01*
X5715152Y1504594D01*
X5715152Y1518259D01*
X5713323Y1531772D01*
X5709462Y1545742D01*
X5709107Y1549247D01*
X5710021Y1552702D01*
X5712053Y1555597D01*
X6328257Y2171801D01*
X6331559Y2174036D01*
X6335471Y2174798D01*
X7244232Y2174798D01*
X7247991Y2174087D01*
X7251242Y2171954D01*
X7253478Y2168804D01*
X7259726Y2154885D01*
X7267600Y2141880D01*
X7276998Y2129942D01*
X7287717Y2119172D01*
X7299706Y2109825D01*
X7312710Y2101951D01*
X7326579Y2095703D01*
X7341057Y2091182D01*
X7356043Y2088438D01*
X7371232Y2087524D01*
X7386370Y2088438D01*
X7401356Y2091182D01*
X7415834Y2095703D01*
X7429703Y2101951D01*
X7442708Y2109825D01*
X7454696Y2119172D01*
X7465415Y2129942D01*
X7474813Y2141880D01*
X7482687Y2154885D01*
X7488936Y2168753D01*
X7493457Y2183282D01*
X7496200Y2198217D01*
X7497114Y2213406D01*
X7496200Y2228596D01*
X7493457Y2243531D01*
X7488936Y2258060D01*
X7482687Y2271928D01*
X7474813Y2284933D01*
X7471257Y2289454D01*
X7469327Y2293518D01*
X7469378Y2298039D01*
X7471308Y2302103D01*
X7474864Y2304897D01*
X7479233Y2305862D01*
X7913166Y2305862D01*
X7917535Y2304897D01*
X7921091Y2302103D01*
X7923022Y2298039D01*
X7923072Y2293518D01*
X7921142Y2289454D01*
X7917586Y2284933D01*
X7909712Y2271928D01*
X7903464Y2258060D01*
X7898942Y2243531D01*
X7896199Y2228596D01*
X7895285Y2213406D01*
X7896199Y2198217D01*
X7898942Y2183282D01*
X7903464Y2168753D01*
X7909712Y2154885D01*
X7917586Y2141880D01*
X7926984Y2129942D01*
X7937703Y2119172D01*
X7949692Y2109825D01*
X7962696Y2101951D01*
X7976565Y2095703D01*
X7991043Y2091182D01*
X8006029Y2088438D01*
X8021218Y2087524D01*
X8036356Y2088438D01*
X8051342Y2091182D01*
X8065820Y2095703D01*
X8079689Y2101951D01*
X8092694Y2109825D01*
X8104682Y2119172D01*
X8115401Y2129942D01*
X8124799Y2141880D01*
X8132673Y2154885D01*
X8138922Y2168753D01*
X8143443Y2183282D01*
X8146186Y2198217D01*
X8147100Y2213406D01*
X8146186Y2228596D01*
X8143443Y2243531D01*
X8138922Y2258060D01*
X8132673Y2271928D01*
X8124799Y2284933D01*
X8121243Y2289454D01*
X8119313Y2293518D01*
X8119364Y2298039D01*
X8121294Y2302103D01*
X8124850Y2304897D01*
X8129219Y2305862D01*
X8997899Y2305862D01*
X9001810Y2305100D01*
X9005112Y2302916D01*
X9057690Y2250338D01*
X9059926Y2246934D01*
X9060637Y2242972D01*
X9059773Y2239010D01*
X9056878Y2232660D01*
X9052356Y2218131D01*
X9049613Y2203196D01*
X9048699Y2188006D01*
X9049613Y2172817D01*
X9052356Y2157882D01*
X9056878Y2143353D01*
X9063126Y2129485D01*
X9071000Y2116480D01*
X9080398Y2104542D01*
X9091117Y2093772D01*
X9103106Y2084425D01*
X9116110Y2076551D01*
X9129979Y2070303D01*
X9144457Y2065782D01*
X9159443Y2063038D01*
X9174632Y2062124D01*
X9189770Y2063038D01*
X9204756Y2065782D01*
X9219234Y2070303D01*
X9233103Y2076551D01*
X9246108Y2084425D01*
X9258096Y2093772D01*
X9268815Y2104542D01*
X9278213Y2116480D01*
X9286087Y2129485D01*
X9292336Y2143353D01*
X9296857Y2157882D01*
X9299600Y2172817D01*
X9300514Y2188006D01*
X9299600Y2203196D01*
X9296857Y2218131D01*
X9292336Y2232660D01*
X9286087Y2246528D01*
X9278213Y2259533D01*
X9268815Y2271471D01*
X9258096Y2282240D01*
X9246108Y2291588D01*
X9233103Y2299462D01*
X9219234Y2305710D01*
X9204756Y2310231D01*
X9189770Y2312974D01*
X9174632Y2313889D01*
X9159443Y2312974D01*
X9144457Y2310231D01*
X9129979Y2305710D01*
X9123629Y2302865D01*
X9119666Y2301951D01*
X9115653Y2302713D01*
X9112250Y2304948D01*
X9045752Y2371445D01*
X9039555Y2376576D01*
X9032900Y2380132D01*
X9025636Y2382316D01*
X9017609Y2383078D01*
X5938824Y2383078D01*
X5930798Y2382316D01*
X5923584Y2380132D01*
X5916930Y2376576D01*
X5910681Y2371445D01*
X5149342Y1610055D01*
X5146090Y1607921D01*
X5142331Y1607108D01*
X5138470Y1607769D01*
X5135524Y1608937D01*
X5122265Y1612087D01*
X5108702Y1613458D01*
X5095036Y1613001D01*
X5081625Y1610715D01*
X5068570Y1606702D01*
X5056225Y1600962D01*
X5044694Y1593596D01*
X5034280Y1584807D01*
X5025136Y1574698D01*
X5017414Y1563471D01*
X5011267Y1551279D01*
X5006797Y1538376D01*
X5004104Y1525016D01*
X5003190Y1511401D01*
X5004104Y1497838D01*
X5006797Y1484477D01*
X5011267Y1471574D01*
X5017414Y1459382D01*
X5025136Y1448155D01*
X5034280Y1438046D01*
X5044694Y1429258D01*
X5056225Y1421892D01*
X5068570Y1416151D01*
X5081625Y1412138D01*
X5095036Y1409852D01*
G37*
G36*
X1593748Y1419656D02*
G01*
X1604213Y1425397D01*
X1615186Y1433474D01*
X1624990Y1442974D01*
X1633423Y1453642D01*
X1640382Y1465376D01*
X1641043Y1466951D01*
X1593748Y1466951D01*
G37*
G36*
X2863748Y1419656D02*
G01*
X2874213Y1425397D01*
X2885186Y1433474D01*
X2894990Y1442974D01*
X2903423Y1453642D01*
X2910382Y1465376D01*
X2911043Y1466951D01*
X2863748Y1466951D01*
G37*
G36*
X4133748Y1419656D02*
G01*
X4144213Y1425397D01*
X4155186Y1433474D01*
X4164990Y1442974D01*
X4173423Y1453642D01*
X4180382Y1465376D01*
X4181043Y1466951D01*
X4133748Y1466951D01*
G37*
G36*
X5403748Y1419656D02*
G01*
X5414213Y1425397D01*
X5425186Y1433474D01*
X5434990Y1442974D01*
X5443423Y1453642D01*
X5450382Y1465376D01*
X5451043Y1466951D01*
X5403748Y1466951D01*
G37*
G36*
X4044848Y1419758D02*
G01*
X4044848Y1466951D01*
X3997604Y1466951D01*
X4001414Y1459382D01*
X4009136Y1448155D01*
X4018279Y1438046D01*
X4028694Y1429258D01*
X4040225Y1421892D01*
G37*
G36*
X2774848Y1419758D02*
G01*
X2774848Y1466951D01*
X2727604Y1466951D01*
X2731414Y1459382D01*
X2739136Y1448155D01*
X2748280Y1438046D01*
X2758694Y1429258D01*
X2770225Y1421892D01*
G37*
G36*
X5314848Y1419758D02*
G01*
X5314848Y1466951D01*
X5267604Y1466951D01*
X5271414Y1459382D01*
X5279136Y1448155D01*
X5288280Y1438046D01*
X5298694Y1429258D01*
X5310225Y1421892D01*
G37*
G36*
X1504848Y1419758D02*
G01*
X1504848Y1466951D01*
X1457604Y1466951D01*
X1461414Y1459382D01*
X1469136Y1448155D01*
X1478280Y1438046D01*
X1488694Y1429258D01*
X1500225Y1421892D01*
G37*
G36*
X2727604Y1555851D02*
G01*
X2774848Y1555851D01*
X2774848Y1603095D01*
X2770225Y1600962D01*
X2758694Y1593596D01*
X2748280Y1584807D01*
X2739136Y1574698D01*
X2731414Y1563471D01*
G37*
G36*
X3997604Y1555851D02*
G01*
X4044848Y1555851D01*
X4044848Y1603095D01*
X4040225Y1600962D01*
X4028694Y1593596D01*
X4018279Y1584807D01*
X4009136Y1574698D01*
X4001414Y1563471D01*
G37*
G36*
X5267604Y1555851D02*
G01*
X5314848Y1555851D01*
X5314848Y1603095D01*
X5310225Y1600962D01*
X5298694Y1593596D01*
X5288280Y1584807D01*
X5279136Y1574698D01*
X5271414Y1563471D01*
G37*
G36*
X1457604Y1555851D02*
G01*
X1504848Y1555851D01*
X1504848Y1603095D01*
X1500225Y1600962D01*
X1488694Y1593596D01*
X1478280Y1584807D01*
X1469136Y1574698D01*
X1461414Y1563471D01*
G37*
G36*
X1593748Y1555851D02*
G01*
X1641043Y1555851D01*
X1640382Y1557477D01*
X1633423Y1569212D01*
X1624990Y1579880D01*
X1615186Y1589379D01*
X1604213Y1597456D01*
X1593748Y1603197D01*
G37*
G36*
X2863748Y1555851D02*
G01*
X2911043Y1555851D01*
X2910382Y1557477D01*
X2903423Y1569212D01*
X2894990Y1579880D01*
X2885186Y1589379D01*
X2874213Y1597456D01*
X2863748Y1603197D01*
G37*
G36*
X4133748Y1555851D02*
G01*
X4181043Y1555851D01*
X4180382Y1557477D01*
X4173423Y1569212D01*
X4164990Y1579880D01*
X4155186Y1589379D01*
X4144213Y1597456D01*
X4133748Y1603197D01*
G37*
G36*
X5403748Y1555851D02*
G01*
X5451043Y1555851D01*
X5450382Y1557477D01*
X5443423Y1569212D01*
X5434990Y1579880D01*
X5425186Y1589379D01*
X5414213Y1597456D01*
X5403748Y1603197D01*
G37*
G36*
X9824618Y2062124D02*
G01*
X9839756Y2063038D01*
X9854742Y2065782D01*
X9869220Y2070303D01*
X9883089Y2076551D01*
X9896094Y2084425D01*
X9908082Y2093772D01*
X9918801Y2104542D01*
X9928199Y2116480D01*
X9936073Y2129485D01*
X9942322Y2143353D01*
X9946843Y2157882D01*
X9949586Y2172817D01*
X9950500Y2188006D01*
X9949586Y2203196D01*
X9946843Y2218131D01*
X9942322Y2232660D01*
X9936073Y2246528D01*
X9928199Y2259533D01*
X9918801Y2271471D01*
X9908082Y2282240D01*
X9896094Y2291588D01*
X9883089Y2299462D01*
X9869220Y2305710D01*
X9854742Y2310231D01*
X9839756Y2312974D01*
X9824618Y2313889D01*
X9809429Y2312974D01*
X9794443Y2310231D01*
X9779965Y2305710D01*
X9766096Y2299462D01*
X9753092Y2291588D01*
X9741103Y2282240D01*
X9730384Y2271471D01*
X9720986Y2259533D01*
X9713112Y2246528D01*
X9706864Y2232660D01*
X9702342Y2218131D01*
X9699599Y2203196D01*
X9698685Y2188006D01*
X9699599Y2172817D01*
X9702342Y2157882D01*
X9706864Y2143353D01*
X9713112Y2129485D01*
X9720986Y2116480D01*
X9730384Y2104542D01*
X9741103Y2093772D01*
X9753092Y2084425D01*
X9766096Y2076551D01*
X9779965Y2070303D01*
X9794443Y2065782D01*
X9809429Y2063038D01*
G37*
G36*
X9174632Y2512110D02*
G01*
X9189770Y2513025D01*
X9204756Y2515768D01*
X9219234Y2520289D01*
X9233103Y2526538D01*
X9246108Y2534412D01*
X9258096Y2543759D01*
X9268815Y2554528D01*
X9278213Y2566466D01*
X9286087Y2579471D01*
X9292336Y2593340D01*
X9296857Y2607868D01*
X9299600Y2622804D01*
X9300514Y2637993D01*
X9299600Y2653182D01*
X9296857Y2668117D01*
X9292336Y2682646D01*
X9286087Y2696514D01*
X9278213Y2709519D01*
X9268815Y2721457D01*
X9258096Y2732227D01*
X9246108Y2741574D01*
X9233103Y2749448D01*
X9219234Y2755696D01*
X9204756Y2760218D01*
X9189770Y2762961D01*
X9174632Y2763875D01*
X9159443Y2762961D01*
X9144457Y2760218D01*
X9129979Y2755696D01*
X9116110Y2749448D01*
X9103106Y2741574D01*
X9091117Y2732227D01*
X9080398Y2721457D01*
X9071000Y2709519D01*
X9063126Y2696514D01*
X9056878Y2682646D01*
X9052356Y2668117D01*
X9049613Y2653182D01*
X9048699Y2637993D01*
X9049613Y2622804D01*
X9052356Y2607868D01*
X9056878Y2593340D01*
X9063126Y2579471D01*
X9071000Y2566466D01*
X9080398Y2554528D01*
X9091117Y2543759D01*
X9103106Y2534412D01*
X9116110Y2526538D01*
X9129979Y2520289D01*
X9144457Y2515768D01*
X9159443Y2513025D01*
G37*
G36*
X9880955Y2525572D02*
G01*
X9883089Y2526538D01*
X9896094Y2534412D01*
X9908082Y2543759D01*
X9918801Y2554528D01*
X9928199Y2566466D01*
X9936073Y2579471D01*
X9937038Y2581656D01*
X9880955Y2581656D01*
G37*
G36*
X9768230Y2525572D02*
G01*
X9768230Y2581656D01*
X9712147Y2581656D01*
X9713112Y2579471D01*
X9720986Y2566466D01*
X9730384Y2554528D01*
X9741103Y2543759D01*
X9753092Y2534412D01*
X9766096Y2526538D01*
G37*
G36*
X7371232Y2537510D02*
G01*
X7386370Y2538425D01*
X7401356Y2541168D01*
X7415834Y2545689D01*
X7429703Y2551938D01*
X7442708Y2559812D01*
X7454696Y2569159D01*
X7465415Y2579928D01*
X7474813Y2591866D01*
X7482687Y2604871D01*
X7488936Y2618740D01*
X7493457Y2633268D01*
X7496200Y2648204D01*
X7497114Y2663393D01*
X7496200Y2678582D01*
X7493457Y2693517D01*
X7488936Y2708046D01*
X7482687Y2721914D01*
X7474813Y2734919D01*
X7465415Y2746857D01*
X7454696Y2757627D01*
X7442708Y2766974D01*
X7429703Y2774848D01*
X7415834Y2781096D01*
X7401356Y2785618D01*
X7386370Y2788361D01*
X7371232Y2789275D01*
X7356043Y2788361D01*
X7341057Y2785618D01*
X7326579Y2781096D01*
X7312710Y2774848D01*
X7299706Y2766974D01*
X7287717Y2757627D01*
X7276998Y2746857D01*
X7267600Y2734919D01*
X7259726Y2721914D01*
X7253478Y2708046D01*
X7248956Y2693517D01*
X7246213Y2678582D01*
X7245299Y2663393D01*
X7246213Y2648204D01*
X7248956Y2633268D01*
X7253478Y2618740D01*
X7259726Y2604871D01*
X7267600Y2591866D01*
X7276998Y2579928D01*
X7287717Y2569159D01*
X7299706Y2559812D01*
X7312710Y2551938D01*
X7326579Y2545689D01*
X7341057Y2541168D01*
X7356043Y2538425D01*
G37*
G36*
X8077555Y2550972D02*
G01*
X8079689Y2551938D01*
X8092694Y2559812D01*
X8104682Y2569159D01*
X8115401Y2579928D01*
X8124799Y2591866D01*
X8132673Y2604871D01*
X8133638Y2607056D01*
X8077555Y2607056D01*
G37*
G36*
X7964830Y2550972D02*
G01*
X7964830Y2607056D01*
X7908747Y2607056D01*
X7909712Y2604871D01*
X7917586Y2591866D01*
X7926984Y2579928D01*
X7937703Y2569159D01*
X7949692Y2559812D01*
X7962696Y2551938D01*
G37*
G36*
X9712147Y2694330D02*
G01*
X9768230Y2694330D01*
X9768230Y2750413D01*
X9766096Y2749448D01*
X9753092Y2741574D01*
X9741103Y2732227D01*
X9730384Y2721457D01*
X9720986Y2709519D01*
X9713112Y2696514D01*
G37*
G36*
X9880955Y2694330D02*
G01*
X9937038Y2694330D01*
X9936073Y2696514D01*
X9928199Y2709519D01*
X9918801Y2721457D01*
X9908082Y2732227D01*
X9896094Y2741574D01*
X9883089Y2749448D01*
X9880955Y2750413D01*
G37*
G36*
X7908747Y2719730D02*
G01*
X7964830Y2719730D01*
X7964830Y2775813D01*
X7962696Y2774848D01*
X7949692Y2766974D01*
X7937703Y2757627D01*
X7926984Y2746857D01*
X7917586Y2734919D01*
X7909712Y2721914D01*
G37*
G36*
X8077555Y2719730D02*
G01*
X8133638Y2719730D01*
X8132673Y2721914D01*
X8124799Y2734919D01*
X8115401Y2746857D01*
X8104682Y2757627D01*
X8092694Y2766974D01*
X8079689Y2774848D01*
X8077555Y2775813D01*
G37*
G36*
X1298956Y3187141D02*
G01*
X1312519Y3188512D01*
X1325778Y3191662D01*
X1338478Y3196590D01*
X1350467Y3203143D01*
X1361440Y3211220D01*
X1371244Y3220720D01*
X1379677Y3231388D01*
X1386636Y3243122D01*
X1391970Y3255670D01*
X1395577Y3268827D01*
X1397406Y3282340D01*
X1397406Y3296005D01*
X1395577Y3309518D01*
X1391970Y3322675D01*
X1386636Y3335223D01*
X1379677Y3346958D01*
X1371244Y3357626D01*
X1361440Y3367125D01*
X1350467Y3375202D01*
X1338478Y3381756D01*
X1325778Y3386683D01*
X1312519Y3389833D01*
X1298956Y3391204D01*
X1285290Y3390747D01*
X1271879Y3388461D01*
X1258824Y3384448D01*
X1246479Y3378708D01*
X1234948Y3371342D01*
X1224534Y3362553D01*
X1215390Y3352444D01*
X1207668Y3341217D01*
X1201521Y3329025D01*
X1197051Y3316122D01*
X1194358Y3302762D01*
X1193444Y3289147D01*
X1194358Y3275584D01*
X1197051Y3262223D01*
X1201521Y3249320D01*
X1207668Y3237128D01*
X1215390Y3225901D01*
X1224534Y3215792D01*
X1234948Y3207004D01*
X1246479Y3199638D01*
X1258824Y3193897D01*
X1271879Y3189884D01*
X1285290Y3187598D01*
G37*
G36*
X1806956Y3187141D02*
G01*
X1820519Y3188512D01*
X1833778Y3191662D01*
X1846478Y3196590D01*
X1858467Y3203143D01*
X1869439Y3211220D01*
X1879244Y3220720D01*
X1887677Y3231388D01*
X1894636Y3243122D01*
X1899970Y3255670D01*
X1903577Y3268827D01*
X1905406Y3282340D01*
X1905406Y3296005D01*
X1903577Y3309518D01*
X1899970Y3322675D01*
X1894636Y3335223D01*
X1887677Y3346958D01*
X1879244Y3357626D01*
X1869439Y3367125D01*
X1858467Y3375202D01*
X1846478Y3381756D01*
X1833778Y3386683D01*
X1820519Y3389833D01*
X1806956Y3391204D01*
X1793290Y3390747D01*
X1779879Y3388461D01*
X1766824Y3384448D01*
X1754479Y3378708D01*
X1742948Y3371342D01*
X1732534Y3362553D01*
X1723389Y3352444D01*
X1715668Y3341217D01*
X1709521Y3329025D01*
X1705051Y3316122D01*
X1702358Y3302762D01*
X1701444Y3289147D01*
X1702358Y3275584D01*
X1705051Y3262223D01*
X1709521Y3249320D01*
X1715668Y3237128D01*
X1723389Y3225901D01*
X1732534Y3215792D01*
X1742948Y3207004D01*
X1754479Y3199638D01*
X1766824Y3193897D01*
X1779879Y3189884D01*
X1793290Y3187598D01*
G37*
G36*
X1044956Y3187141D02*
G01*
X1058519Y3188512D01*
X1071778Y3191662D01*
X1084478Y3196590D01*
X1096467Y3203143D01*
X1107440Y3211220D01*
X1117244Y3220720D01*
X1125677Y3231388D01*
X1132636Y3243122D01*
X1137970Y3255670D01*
X1141577Y3268827D01*
X1143406Y3282340D01*
X1143406Y3296005D01*
X1141577Y3309518D01*
X1137970Y3322675D01*
X1132636Y3335223D01*
X1125677Y3346958D01*
X1117244Y3357626D01*
X1107440Y3367125D01*
X1096467Y3375202D01*
X1084478Y3381756D01*
X1071778Y3386683D01*
X1058519Y3389833D01*
X1044956Y3391204D01*
X1031290Y3390747D01*
X1017879Y3388461D01*
X1004824Y3384448D01*
X992479Y3378708D01*
X980948Y3371342D01*
X970534Y3362553D01*
X961390Y3352444D01*
X953668Y3341217D01*
X947521Y3329025D01*
X943051Y3316122D01*
X940358Y3302762D01*
X939444Y3289147D01*
X940358Y3275584D01*
X943051Y3262223D01*
X947521Y3249320D01*
X953668Y3237128D01*
X961390Y3225901D01*
X970534Y3215792D01*
X980948Y3207004D01*
X992479Y3199638D01*
X1004824Y3193897D01*
X1017879Y3189884D01*
X1031290Y3187598D01*
G37*
G36*
X4600956Y3187141D02*
G01*
X4614519Y3188512D01*
X4627778Y3191662D01*
X4640478Y3196590D01*
X4652467Y3203143D01*
X4663440Y3211220D01*
X4673244Y3220720D01*
X4681677Y3231388D01*
X4688636Y3243122D01*
X4693970Y3255670D01*
X4697577Y3268827D01*
X4699406Y3282340D01*
X4699406Y3296005D01*
X4697577Y3309518D01*
X4693970Y3322675D01*
X4688636Y3335223D01*
X4681677Y3346958D01*
X4673244Y3357626D01*
X4663440Y3367125D01*
X4652467Y3375202D01*
X4640478Y3381756D01*
X4627778Y3386683D01*
X4614519Y3389833D01*
X4600956Y3391204D01*
X4587290Y3390747D01*
X4573879Y3388461D01*
X4560824Y3384448D01*
X4548479Y3378708D01*
X4536948Y3371342D01*
X4526534Y3362553D01*
X4517390Y3352444D01*
X4509668Y3341217D01*
X4503521Y3329025D01*
X4499051Y3316122D01*
X4496358Y3302762D01*
X4495444Y3289147D01*
X4496358Y3275584D01*
X4499051Y3262223D01*
X4503521Y3249320D01*
X4509668Y3237128D01*
X4517390Y3225901D01*
X4526534Y3215792D01*
X4536948Y3207004D01*
X4548479Y3199638D01*
X4560824Y3193897D01*
X4573879Y3189884D01*
X4587290Y3187598D01*
G37*
G36*
X3330956Y3187141D02*
G01*
X3344519Y3188512D01*
X3357778Y3191662D01*
X3370478Y3196590D01*
X3382467Y3203143D01*
X3393440Y3211220D01*
X3403244Y3220720D01*
X3411677Y3231388D01*
X3418636Y3243122D01*
X3423970Y3255670D01*
X3427577Y3268827D01*
X3429406Y3282340D01*
X3429406Y3296005D01*
X3427577Y3309518D01*
X3423970Y3322675D01*
X3418636Y3335223D01*
X3411677Y3346958D01*
X3403244Y3357626D01*
X3393440Y3367125D01*
X3382467Y3375202D01*
X3370478Y3381756D01*
X3357778Y3386683D01*
X3344519Y3389833D01*
X3330956Y3391204D01*
X3317290Y3390747D01*
X3303879Y3388461D01*
X3290824Y3384448D01*
X3278479Y3378708D01*
X3266948Y3371342D01*
X3256534Y3362553D01*
X3247390Y3352444D01*
X3239668Y3341217D01*
X3233521Y3329025D01*
X3229051Y3316122D01*
X3226358Y3302762D01*
X3225444Y3289147D01*
X3226358Y3275584D01*
X3229051Y3262223D01*
X3233521Y3249320D01*
X3239668Y3237128D01*
X3247390Y3225901D01*
X3256534Y3215792D01*
X3266948Y3207004D01*
X3278479Y3199638D01*
X3290824Y3193897D01*
X3303879Y3189884D01*
X3317290Y3187598D01*
G37*
G36*
X3584956Y3187141D02*
G01*
X3598519Y3188512D01*
X3611778Y3191662D01*
X3624478Y3196590D01*
X3636467Y3203143D01*
X3647440Y3211220D01*
X3657244Y3220720D01*
X3665677Y3231388D01*
X3672636Y3243122D01*
X3677970Y3255670D01*
X3681577Y3268827D01*
X3683406Y3282340D01*
X3683406Y3296005D01*
X3681577Y3309518D01*
X3677970Y3322675D01*
X3672636Y3335223D01*
X3665677Y3346958D01*
X3657244Y3357626D01*
X3647440Y3367125D01*
X3636467Y3375202D01*
X3624478Y3381756D01*
X3611778Y3386683D01*
X3598519Y3389833D01*
X3584956Y3391204D01*
X3571290Y3390747D01*
X3557879Y3388461D01*
X3544824Y3384448D01*
X3532479Y3378708D01*
X3520948Y3371342D01*
X3510534Y3362553D01*
X3501390Y3352444D01*
X3493668Y3341217D01*
X3487521Y3329025D01*
X3483051Y3316122D01*
X3480358Y3302762D01*
X3479444Y3289147D01*
X3480358Y3275584D01*
X3483051Y3262223D01*
X3487521Y3249320D01*
X3493668Y3237128D01*
X3501390Y3225901D01*
X3510534Y3215792D01*
X3520948Y3207004D01*
X3532479Y3199638D01*
X3544824Y3193897D01*
X3557879Y3189884D01*
X3571290Y3187598D01*
G37*
G36*
X3838956Y3187141D02*
G01*
X3852519Y3188512D01*
X3865778Y3191662D01*
X3878478Y3196590D01*
X3890467Y3203143D01*
X3901440Y3211220D01*
X3911244Y3220720D01*
X3919677Y3231388D01*
X3926636Y3243122D01*
X3931970Y3255670D01*
X3935577Y3268827D01*
X3937406Y3282340D01*
X3937406Y3296005D01*
X3935577Y3309518D01*
X3931970Y3322675D01*
X3926636Y3335223D01*
X3919677Y3346958D01*
X3911244Y3357626D01*
X3901440Y3367125D01*
X3890467Y3375202D01*
X3878478Y3381756D01*
X3865778Y3386683D01*
X3852519Y3389833D01*
X3838956Y3391204D01*
X3825290Y3390747D01*
X3811879Y3388461D01*
X3798824Y3384448D01*
X3786479Y3378708D01*
X3774948Y3371342D01*
X3764534Y3362553D01*
X3755390Y3352444D01*
X3747668Y3341217D01*
X3741521Y3329025D01*
X3737051Y3316122D01*
X3734358Y3302762D01*
X3733444Y3289147D01*
X3734358Y3275584D01*
X3737051Y3262223D01*
X3741521Y3249320D01*
X3747668Y3237128D01*
X3755390Y3225901D01*
X3764534Y3215792D01*
X3774948Y3207004D01*
X3786479Y3199638D01*
X3798824Y3193897D01*
X3811879Y3189884D01*
X3825290Y3187598D01*
G37*
G36*
X4346956Y3187141D02*
G01*
X4360519Y3188512D01*
X4373778Y3191662D01*
X4386478Y3196590D01*
X4398467Y3203143D01*
X4409440Y3211220D01*
X4419244Y3220720D01*
X4427677Y3231388D01*
X4434636Y3243122D01*
X4439970Y3255670D01*
X4443577Y3268827D01*
X4445406Y3282340D01*
X4445406Y3296005D01*
X4443577Y3309518D01*
X4439970Y3322675D01*
X4434636Y3335223D01*
X4427677Y3346958D01*
X4419244Y3357626D01*
X4409440Y3367125D01*
X4398467Y3375202D01*
X4386478Y3381756D01*
X4373778Y3386683D01*
X4360519Y3389833D01*
X4346956Y3391204D01*
X4333290Y3390747D01*
X4319879Y3388461D01*
X4306824Y3384448D01*
X4294479Y3378708D01*
X4282948Y3371342D01*
X4272534Y3362553D01*
X4263390Y3352444D01*
X4255668Y3341217D01*
X4249521Y3329025D01*
X4245051Y3316122D01*
X4242358Y3302762D01*
X4241444Y3289147D01*
X4242358Y3275584D01*
X4245051Y3262223D01*
X4249521Y3249320D01*
X4255668Y3237128D01*
X4263390Y3225901D01*
X4272534Y3215792D01*
X4282948Y3207004D01*
X4294479Y3199638D01*
X4306824Y3193897D01*
X4319879Y3189884D01*
X4333290Y3187598D01*
G37*
G36*
X4854956Y3187141D02*
G01*
X4868519Y3188512D01*
X4881778Y3191662D01*
X4894478Y3196590D01*
X4906467Y3203143D01*
X4917440Y3211220D01*
X4927244Y3220720D01*
X4935677Y3231388D01*
X4942636Y3243122D01*
X4947970Y3255670D01*
X4951577Y3268827D01*
X4953406Y3282340D01*
X4953406Y3296005D01*
X4951577Y3309518D01*
X4947970Y3322675D01*
X4942636Y3335223D01*
X4935677Y3346958D01*
X4927244Y3357626D01*
X4917440Y3367125D01*
X4906467Y3375202D01*
X4894478Y3381756D01*
X4881778Y3386683D01*
X4868519Y3389833D01*
X4854956Y3391204D01*
X4841290Y3390747D01*
X4827879Y3388461D01*
X4814824Y3384448D01*
X4802479Y3378708D01*
X4790948Y3371342D01*
X4780534Y3362553D01*
X4771390Y3352444D01*
X4763668Y3341217D01*
X4757521Y3329025D01*
X4753051Y3316122D01*
X4750358Y3302762D01*
X4749444Y3289147D01*
X4750358Y3275584D01*
X4753051Y3262223D01*
X4757521Y3249320D01*
X4763668Y3237128D01*
X4771390Y3225901D01*
X4780534Y3215792D01*
X4790948Y3207004D01*
X4802479Y3199638D01*
X4814824Y3193897D01*
X4827879Y3189884D01*
X4841290Y3187598D01*
G37*
G36*
X5108956Y3187141D02*
G01*
X5122519Y3188512D01*
X5135778Y3191662D01*
X5148478Y3196590D01*
X5160467Y3203143D01*
X5171440Y3211220D01*
X5181244Y3220720D01*
X5189677Y3231388D01*
X5196636Y3243122D01*
X5201970Y3255670D01*
X5205577Y3268827D01*
X5207406Y3282340D01*
X5207406Y3296005D01*
X5205577Y3309518D01*
X5201970Y3322675D01*
X5196636Y3335223D01*
X5189677Y3346958D01*
X5181244Y3357626D01*
X5171440Y3367125D01*
X5160467Y3375202D01*
X5148478Y3381756D01*
X5135778Y3386683D01*
X5122519Y3389833D01*
X5108956Y3391204D01*
X5095290Y3390747D01*
X5081879Y3388461D01*
X5068824Y3384448D01*
X5056479Y3378708D01*
X5044948Y3371342D01*
X5034534Y3362553D01*
X5025390Y3352444D01*
X5017668Y3341217D01*
X5011521Y3329025D01*
X5007051Y3316122D01*
X5004358Y3302762D01*
X5003444Y3289147D01*
X5004358Y3275584D01*
X5007051Y3262223D01*
X5011521Y3249320D01*
X5017668Y3237128D01*
X5025390Y3225901D01*
X5034534Y3215792D01*
X5044948Y3207004D01*
X5056479Y3199638D01*
X5068824Y3193897D01*
X5081879Y3189884D01*
X5095290Y3187598D01*
G37*
G36*
X2314956Y3187141D02*
G01*
X2328519Y3188512D01*
X2341778Y3191662D01*
X2354478Y3196590D01*
X2366467Y3203143D01*
X2377440Y3211220D01*
X2387244Y3220720D01*
X2395677Y3231388D01*
X2402636Y3243122D01*
X2407970Y3255670D01*
X2411577Y3268827D01*
X2413406Y3282340D01*
X2413406Y3296005D01*
X2411577Y3309518D01*
X2407970Y3322675D01*
X2402636Y3335223D01*
X2395677Y3346958D01*
X2387244Y3357626D01*
X2377440Y3367125D01*
X2366467Y3375202D01*
X2354478Y3381756D01*
X2341778Y3386683D01*
X2328519Y3389833D01*
X2314956Y3391204D01*
X2301290Y3390747D01*
X2287879Y3388461D01*
X2274824Y3384448D01*
X2262479Y3378708D01*
X2250948Y3371342D01*
X2240534Y3362553D01*
X2231390Y3352444D01*
X2223668Y3341217D01*
X2217521Y3329025D01*
X2213051Y3316122D01*
X2210358Y3302762D01*
X2209444Y3289147D01*
X2210358Y3275584D01*
X2213051Y3262223D01*
X2217521Y3249320D01*
X2223668Y3237128D01*
X2231390Y3225901D01*
X2240534Y3215792D01*
X2250948Y3207004D01*
X2262479Y3199638D01*
X2274824Y3193897D01*
X2287879Y3189884D01*
X2301290Y3187598D01*
G37*
G36*
X2568956Y3187141D02*
G01*
X2582519Y3188512D01*
X2595778Y3191662D01*
X2608478Y3196590D01*
X2620467Y3203143D01*
X2631440Y3211220D01*
X2641244Y3220720D01*
X2649677Y3231388D01*
X2656636Y3243122D01*
X2661970Y3255670D01*
X2665577Y3268827D01*
X2667406Y3282340D01*
X2667406Y3296005D01*
X2665577Y3309518D01*
X2661970Y3322675D01*
X2656636Y3335223D01*
X2649677Y3346958D01*
X2641244Y3357626D01*
X2631440Y3367125D01*
X2620467Y3375202D01*
X2608478Y3381756D01*
X2595778Y3386683D01*
X2582519Y3389833D01*
X2568956Y3391204D01*
X2555290Y3390747D01*
X2541879Y3388461D01*
X2528824Y3384448D01*
X2516479Y3378708D01*
X2504948Y3371342D01*
X2494534Y3362553D01*
X2485390Y3352444D01*
X2477668Y3341217D01*
X2471521Y3329025D01*
X2467051Y3316122D01*
X2464358Y3302762D01*
X2463444Y3289147D01*
X2464358Y3275584D01*
X2467051Y3262223D01*
X2471521Y3249320D01*
X2477668Y3237128D01*
X2485390Y3225901D01*
X2494534Y3215792D01*
X2504948Y3207004D01*
X2516479Y3199638D01*
X2528824Y3193897D01*
X2541879Y3189884D01*
X2555290Y3187598D01*
G37*
G36*
X5616956Y3187141D02*
G01*
X5630519Y3188512D01*
X5643778Y3191662D01*
X5656478Y3196590D01*
X5668467Y3203143D01*
X5679440Y3211220D01*
X5689244Y3220720D01*
X5697677Y3231388D01*
X5704636Y3243122D01*
X5709970Y3255670D01*
X5713577Y3268827D01*
X5715406Y3282340D01*
X5715406Y3296005D01*
X5713577Y3309518D01*
X5709970Y3322675D01*
X5704636Y3335223D01*
X5697677Y3346958D01*
X5689244Y3357626D01*
X5679440Y3367125D01*
X5668467Y3375202D01*
X5656478Y3381756D01*
X5643778Y3386683D01*
X5630519Y3389833D01*
X5616956Y3391204D01*
X5603290Y3390747D01*
X5589879Y3388461D01*
X5576824Y3384448D01*
X5564479Y3378708D01*
X5552948Y3371342D01*
X5542534Y3362553D01*
X5533390Y3352444D01*
X5525668Y3341217D01*
X5519521Y3329025D01*
X5515051Y3316122D01*
X5512358Y3302762D01*
X5511444Y3289147D01*
X5512358Y3275584D01*
X5515051Y3262223D01*
X5519521Y3249320D01*
X5525668Y3237128D01*
X5533390Y3225901D01*
X5542534Y3215792D01*
X5552948Y3207004D01*
X5564479Y3199638D01*
X5576824Y3193897D01*
X5589879Y3189884D01*
X5603290Y3187598D01*
G37*
G36*
X3076956Y3187141D02*
G01*
X3090519Y3188512D01*
X3103778Y3191662D01*
X3116478Y3196590D01*
X3128467Y3203143D01*
X3139440Y3211220D01*
X3149244Y3220720D01*
X3157677Y3231388D01*
X3164636Y3243122D01*
X3169970Y3255670D01*
X3173577Y3268827D01*
X3175406Y3282340D01*
X3175406Y3296005D01*
X3173577Y3309518D01*
X3169970Y3322675D01*
X3164636Y3335223D01*
X3157677Y3346958D01*
X3149244Y3357626D01*
X3139440Y3367125D01*
X3128467Y3375202D01*
X3116478Y3381756D01*
X3103778Y3386683D01*
X3090519Y3389833D01*
X3076956Y3391204D01*
X3063290Y3390747D01*
X3049879Y3388461D01*
X3036824Y3384448D01*
X3024479Y3378708D01*
X3012948Y3371342D01*
X3002534Y3362553D01*
X2993390Y3352444D01*
X2985668Y3341217D01*
X2979521Y3329025D01*
X2975051Y3316122D01*
X2972358Y3302762D01*
X2971444Y3289147D01*
X2972358Y3275584D01*
X2975051Y3262223D01*
X2979521Y3249320D01*
X2985668Y3237128D01*
X2993390Y3225901D01*
X3002534Y3215792D01*
X3012948Y3207004D01*
X3024479Y3199638D01*
X3036824Y3193897D01*
X3049879Y3189884D01*
X3063290Y3187598D01*
G37*
G36*
X5870956Y3187141D02*
G01*
X5884519Y3188512D01*
X5897778Y3191662D01*
X5910478Y3196590D01*
X5922467Y3203143D01*
X5933440Y3211220D01*
X5943244Y3220720D01*
X5951677Y3231388D01*
X5958636Y3243122D01*
X5963970Y3255670D01*
X5967577Y3268827D01*
X5969406Y3282340D01*
X5969406Y3296005D01*
X5967577Y3309518D01*
X5963970Y3322675D01*
X5958636Y3335223D01*
X5951677Y3346958D01*
X5943244Y3357626D01*
X5933440Y3367125D01*
X5922467Y3375202D01*
X5910478Y3381756D01*
X5897778Y3386683D01*
X5884519Y3389833D01*
X5870956Y3391204D01*
X5857290Y3390747D01*
X5843879Y3388461D01*
X5830824Y3384448D01*
X5818479Y3378708D01*
X5806948Y3371342D01*
X5796534Y3362553D01*
X5787390Y3352444D01*
X5779668Y3341217D01*
X5773521Y3329025D01*
X5769051Y3316122D01*
X5766358Y3302762D01*
X5765444Y3289147D01*
X5766358Y3275584D01*
X5769051Y3262223D01*
X5773521Y3249320D01*
X5779668Y3237128D01*
X5787390Y3225901D01*
X5796534Y3215792D01*
X5806948Y3207004D01*
X5818479Y3199638D01*
X5830824Y3193897D01*
X5843879Y3189884D01*
X5857290Y3187598D01*
G37*
G36*
X2060956Y3187141D02*
G01*
X2074519Y3188512D01*
X2087778Y3191662D01*
X2100478Y3196590D01*
X2112467Y3203143D01*
X2123440Y3211220D01*
X2133244Y3220720D01*
X2141677Y3231388D01*
X2148636Y3243122D01*
X2153970Y3255670D01*
X2157577Y3268827D01*
X2159406Y3282340D01*
X2159406Y3296005D01*
X2157120Y3313379D01*
X2158034Y3316833D01*
X2160066Y3319729D01*
X2326538Y3486200D01*
X2329840Y3488385D01*
X2333701Y3489147D01*
X3806545Y3489147D01*
X3811219Y3489350D01*
X3815638Y3489960D01*
X3819956Y3490925D01*
X3824173Y3492246D01*
X3828287Y3493922D01*
X3832250Y3496005D01*
X3835958Y3498392D01*
X3839514Y3501085D01*
X3842918Y3504234D01*
X4271264Y3932580D01*
X4274921Y3934917D01*
X4279239Y3935526D01*
X4283405Y3934256D01*
X4286656Y3931361D01*
X4288434Y3927398D01*
X4288332Y3923080D01*
X4286453Y3915003D01*
X4283557Y3894328D01*
X4282592Y3873500D01*
X4283557Y3852672D01*
X4286453Y3831996D01*
X4291228Y3811676D01*
X4297832Y3791915D01*
X4306265Y3772814D01*
X4316425Y3754577D01*
X4328210Y3737356D01*
X4341571Y3721303D01*
X4356303Y3706571D01*
X4372356Y3693210D01*
X4389577Y3681425D01*
X4407814Y3671265D01*
X4426915Y3662832D01*
X4446676Y3656228D01*
X4466996Y3651453D01*
X4487672Y3648557D01*
X4508500Y3647592D01*
X4529328Y3648557D01*
X4550003Y3651453D01*
X4570323Y3656228D01*
X4590084Y3662832D01*
X4609185Y3671265D01*
X4627422Y3681425D01*
X4644644Y3693210D01*
X4660696Y3706571D01*
X4675428Y3721303D01*
X4688789Y3737356D01*
X4700574Y3754577D01*
X4710734Y3772814D01*
X4719167Y3791915D01*
X4725771Y3811676D01*
X4730546Y3831996D01*
X4733442Y3852672D01*
X4734407Y3873500D01*
X4733442Y3894328D01*
X4730546Y3915003D01*
X4725771Y3935323D01*
X4719167Y3955084D01*
X4710734Y3974185D01*
X4700574Y3992422D01*
X4688789Y4009644D01*
X4675428Y4025696D01*
X4660696Y4040428D01*
X4644644Y4053789D01*
X4627422Y4065574D01*
X4609185Y4075734D01*
X4590084Y4084167D01*
X4570323Y4090771D01*
X4550003Y4095546D01*
X4529328Y4098442D01*
X4508500Y4099407D01*
X4487672Y4098442D01*
X4466996Y4095546D01*
X4458919Y4093667D01*
X4454601Y4093565D01*
X4450638Y4095343D01*
X4447743Y4098594D01*
X4446473Y4102760D01*
X4447082Y4107078D01*
X4449419Y4110736D01*
X5568137Y5229402D01*
X5570829Y5231333D01*
X5573979Y5232298D01*
X5577281Y5232196D01*
X5587034Y5230266D01*
X5600700Y5229352D01*
X5614365Y5230266D01*
X5627776Y5232958D01*
X5640730Y5237327D01*
X5653024Y5243372D01*
X5664403Y5250992D01*
X5674664Y5260035D01*
X5683707Y5270296D01*
X5691327Y5281676D01*
X5697372Y5293969D01*
X5701741Y5306923D01*
X5704433Y5320334D01*
X5705348Y5334000D01*
X5704433Y5347665D01*
X5701741Y5361076D01*
X5697372Y5374030D01*
X5691327Y5386324D01*
X5683707Y5397703D01*
X5674664Y5407964D01*
X5664403Y5417007D01*
X5653024Y5424627D01*
X5640730Y5430672D01*
X5627776Y5435041D01*
X5614365Y5437733D01*
X5600700Y5438648D01*
X5587034Y5437733D01*
X5573623Y5435041D01*
X5560669Y5430672D01*
X5548376Y5424627D01*
X5536996Y5417007D01*
X5526735Y5407964D01*
X5517692Y5397703D01*
X5510072Y5386324D01*
X5504027Y5374030D01*
X5499658Y5361076D01*
X5496966Y5347665D01*
X5496052Y5334000D01*
X5496966Y5320334D01*
X5498896Y5310581D01*
X5498998Y5307279D01*
X5498033Y5304129D01*
X5496153Y5301437D01*
X3788664Y3593947D01*
X3785362Y3591763D01*
X3781501Y3591001D01*
X2308656Y3591001D01*
X2303983Y3590798D01*
X2299614Y3590188D01*
X2295245Y3589223D01*
X2291029Y3587902D01*
X2286914Y3586226D01*
X2283002Y3584143D01*
X2279243Y3581755D01*
X2275738Y3579063D01*
X2272284Y3575913D01*
X2087981Y3391611D01*
X2085136Y3389629D01*
X2081834Y3388664D01*
X2078431Y3388918D01*
X2074519Y3389833D01*
X2060956Y3391204D01*
X2047290Y3390747D01*
X2033879Y3388461D01*
X2020824Y3384448D01*
X2008479Y3378708D01*
X1996948Y3371342D01*
X1986534Y3362553D01*
X1977389Y3352444D01*
X1969668Y3341217D01*
X1963521Y3329025D01*
X1959051Y3316122D01*
X1956358Y3302762D01*
X1955444Y3289147D01*
X1956358Y3275584D01*
X1959051Y3262223D01*
X1963521Y3249320D01*
X1969668Y3237128D01*
X1977389Y3225901D01*
X1986534Y3215792D01*
X1996948Y3207004D01*
X2008479Y3199638D01*
X2020824Y3193897D01*
X2033879Y3189884D01*
X2047290Y3187598D01*
G37*
G36*
X1594002Y3197402D02*
G01*
X1604467Y3203143D01*
X1615440Y3211220D01*
X1625244Y3220720D01*
X1633677Y3231388D01*
X1640636Y3243122D01*
X1641297Y3244697D01*
X1594002Y3244697D01*
G37*
G36*
X4134002Y3197402D02*
G01*
X4144467Y3203143D01*
X4155440Y3211220D01*
X4165244Y3220720D01*
X4173677Y3231388D01*
X4180636Y3243122D01*
X4181297Y3244697D01*
X4134002Y3244697D01*
G37*
G36*
X5404002Y3197402D02*
G01*
X5414467Y3203143D01*
X5425440Y3211220D01*
X5435244Y3220720D01*
X5443677Y3231388D01*
X5450636Y3243122D01*
X5451297Y3244697D01*
X5404002Y3244697D01*
G37*
G36*
X2864002Y3197402D02*
G01*
X2874467Y3203143D01*
X2885440Y3211220D01*
X2895244Y3220720D01*
X2903677Y3231388D01*
X2910636Y3243122D01*
X2911297Y3244697D01*
X2864002Y3244697D01*
G37*
G36*
X4045102Y3197504D02*
G01*
X4045102Y3244697D01*
X3997858Y3244697D01*
X4001668Y3237128D01*
X4009390Y3225901D01*
X4018534Y3215792D01*
X4028948Y3207004D01*
X4040479Y3199638D01*
G37*
G36*
X2775102Y3197504D02*
G01*
X2775102Y3244697D01*
X2727858Y3244697D01*
X2731668Y3237128D01*
X2739390Y3225901D01*
X2748534Y3215792D01*
X2758948Y3207004D01*
X2770479Y3199638D01*
G37*
G36*
X5315102Y3197504D02*
G01*
X5315102Y3244697D01*
X5267858Y3244697D01*
X5271668Y3237128D01*
X5279390Y3225901D01*
X5288534Y3215792D01*
X5298948Y3207004D01*
X5310479Y3199638D01*
G37*
G36*
X1505102Y3197504D02*
G01*
X1505102Y3244697D01*
X1457858Y3244697D01*
X1461668Y3237128D01*
X1469390Y3225901D01*
X1478534Y3215792D01*
X1488948Y3207004D01*
X1500479Y3199638D01*
G37*
G36*
X3997858Y3333597D02*
G01*
X4045102Y3333597D01*
X4045102Y3380841D01*
X4040479Y3378708D01*
X4028948Y3371342D01*
X4018534Y3362553D01*
X4009390Y3352444D01*
X4001668Y3341217D01*
G37*
G36*
X5267858Y3333597D02*
G01*
X5315102Y3333597D01*
X5315102Y3380841D01*
X5310479Y3378708D01*
X5298948Y3371342D01*
X5288534Y3362553D01*
X5279390Y3352444D01*
X5271668Y3341217D01*
G37*
G36*
X2727858Y3333597D02*
G01*
X2775102Y3333597D01*
X2775102Y3380841D01*
X2770479Y3378708D01*
X2758948Y3371342D01*
X2748534Y3362553D01*
X2739390Y3352444D01*
X2731668Y3341217D01*
G37*
G36*
X1457858Y3333597D02*
G01*
X1505102Y3333597D01*
X1505102Y3380841D01*
X1500479Y3378708D01*
X1488948Y3371342D01*
X1478534Y3362553D01*
X1469390Y3352444D01*
X1461668Y3341217D01*
G37*
G36*
X1594002Y3333597D02*
G01*
X1641297Y3333597D01*
X1640636Y3335223D01*
X1633677Y3346958D01*
X1625244Y3357626D01*
X1615440Y3367125D01*
X1604467Y3375202D01*
X1594002Y3380943D01*
G37*
G36*
X4134002Y3333597D02*
G01*
X4181297Y3333597D01*
X4180636Y3335223D01*
X4173677Y3346958D01*
X4165244Y3357626D01*
X4155440Y3367125D01*
X4144467Y3375202D01*
X4134002Y3380943D01*
G37*
G36*
X2864002Y3333597D02*
G01*
X2911297Y3333597D01*
X2910636Y3335223D01*
X2903677Y3346958D01*
X2895244Y3357626D01*
X2885440Y3367125D01*
X2874467Y3375202D01*
X2864002Y3380943D01*
G37*
G36*
X5404002Y3333597D02*
G01*
X5451297Y3333597D01*
X5450636Y3335223D01*
X5443677Y3346958D01*
X5435244Y3357626D01*
X5425440Y3367125D01*
X5414467Y3375202D01*
X5404002Y3380943D01*
G37*
G36*
X6146800Y3647592D02*
G01*
X6167628Y3648557D01*
X6188303Y3651453D01*
X6208623Y3656228D01*
X6228384Y3662832D01*
X6247485Y3671265D01*
X6265722Y3681425D01*
X6282944Y3693210D01*
X6298996Y3706571D01*
X6313728Y3721303D01*
X6327089Y3737356D01*
X6338874Y3754577D01*
X6349034Y3772814D01*
X6357467Y3791915D01*
X6364071Y3811676D01*
X6368846Y3831996D01*
X6371742Y3852672D01*
X6372707Y3873500D01*
X6371742Y3894328D01*
X6368846Y3915003D01*
X6364071Y3935323D01*
X6357467Y3955084D01*
X6349034Y3974185D01*
X6338874Y3992422D01*
X6327089Y4009644D01*
X6313728Y4025696D01*
X6298996Y4040428D01*
X6282944Y4053789D01*
X6265722Y4065574D01*
X6247485Y4075734D01*
X6228384Y4084167D01*
X6208623Y4090771D01*
X6188303Y4095546D01*
X6167628Y4098442D01*
X6146800Y4099407D01*
X6125972Y4098442D01*
X6105296Y4095546D01*
X6084976Y4090771D01*
X6065215Y4084167D01*
X6046114Y4075734D01*
X6027877Y4065574D01*
X6010656Y4053789D01*
X5994603Y4040428D01*
X5979871Y4025696D01*
X5966510Y4009644D01*
X5954725Y3992422D01*
X5944565Y3974185D01*
X5936132Y3955084D01*
X5929528Y3935323D01*
X5924753Y3915003D01*
X5921857Y3894328D01*
X5920892Y3873500D01*
X5921857Y3852672D01*
X5924753Y3831996D01*
X5929528Y3811676D01*
X5936132Y3791915D01*
X5944565Y3772814D01*
X5954725Y3754577D01*
X5966510Y3737356D01*
X5979871Y3721303D01*
X5994603Y3706571D01*
X6010656Y3693210D01*
X6027877Y3681425D01*
X6046114Y3671265D01*
X6065215Y3662832D01*
X6084976Y3656228D01*
X6105296Y3651453D01*
X6125972Y3648557D01*
G37*
G36*
X5722010Y3959351D02*
G01*
X5735675Y3960266D01*
X5749086Y3962958D01*
X5762040Y3967327D01*
X5774334Y3973372D01*
X5785713Y3980992D01*
X5795975Y3990035D01*
X5805017Y4000296D01*
X5812586Y4011676D01*
X5818682Y4023969D01*
X5823051Y4036923D01*
X5825744Y4050334D01*
X5826607Y4064000D01*
X5825744Y4077665D01*
X5823051Y4091076D01*
X5818682Y4104030D01*
X5812586Y4116324D01*
X5805017Y4127703D01*
X5795975Y4137964D01*
X5785713Y4147007D01*
X5774334Y4154627D01*
X5762040Y4160672D01*
X5749086Y4165041D01*
X5735675Y4167733D01*
X5722010Y4168648D01*
X5708345Y4167733D01*
X5694934Y4165041D01*
X5681980Y4160672D01*
X5669686Y4154627D01*
X5658307Y4147007D01*
X5647994Y4137964D01*
X5639003Y4127703D01*
X5631383Y4116324D01*
X5625338Y4104030D01*
X5620918Y4091076D01*
X5618276Y4077665D01*
X5617362Y4064000D01*
X5618276Y4050334D01*
X5620918Y4036923D01*
X5625338Y4023969D01*
X5631383Y4011676D01*
X5639003Y4000296D01*
X5647994Y3990035D01*
X5658307Y3980992D01*
X5669686Y3973372D01*
X5681980Y3967327D01*
X5694934Y3962958D01*
X5708345Y3960266D01*
G37*
G36*
X5214010Y3959351D02*
G01*
X5227675Y3960266D01*
X5241086Y3962958D01*
X5254040Y3967327D01*
X5266334Y3973372D01*
X5277713Y3980992D01*
X5287975Y3990035D01*
X5297017Y4000296D01*
X5304586Y4011676D01*
X5310682Y4023969D01*
X5315051Y4036923D01*
X5317744Y4050334D01*
X5318607Y4064000D01*
X5317744Y4077665D01*
X5315051Y4091076D01*
X5310682Y4104030D01*
X5304586Y4116324D01*
X5297017Y4127703D01*
X5287975Y4137964D01*
X5277713Y4147007D01*
X5266334Y4154627D01*
X5254040Y4160672D01*
X5241086Y4165041D01*
X5227675Y4167733D01*
X5214010Y4168648D01*
X5200345Y4167733D01*
X5186934Y4165041D01*
X5173980Y4160672D01*
X5161686Y4154627D01*
X5150307Y4147007D01*
X5139994Y4137964D01*
X5131003Y4127703D01*
X5123383Y4116324D01*
X5117338Y4104030D01*
X5112918Y4091076D01*
X5110276Y4077665D01*
X5109362Y4064000D01*
X5110276Y4050334D01*
X5112918Y4036923D01*
X5117338Y4023969D01*
X5123383Y4011676D01*
X5131003Y4000296D01*
X5139994Y3990035D01*
X5150307Y3980992D01*
X5161686Y3973372D01*
X5173980Y3967327D01*
X5186934Y3962958D01*
X5200345Y3960266D01*
G37*
G36*
X4960010Y3959351D02*
G01*
X4973675Y3960266D01*
X4987086Y3962958D01*
X5000040Y3967327D01*
X5012334Y3973372D01*
X5023713Y3980992D01*
X5033975Y3990035D01*
X5043017Y4000296D01*
X5050637Y4011676D01*
X5056682Y4023969D01*
X5061051Y4036923D01*
X5063744Y4050334D01*
X5064658Y4064000D01*
X5063744Y4077665D01*
X5061051Y4091076D01*
X5056682Y4104030D01*
X5050637Y4116324D01*
X5043017Y4127703D01*
X5033975Y4137964D01*
X5023713Y4147007D01*
X5012334Y4154627D01*
X5000040Y4160672D01*
X4987086Y4165041D01*
X4973675Y4167733D01*
X4960010Y4168648D01*
X4946345Y4167733D01*
X4932934Y4165041D01*
X4919980Y4160672D01*
X4907686Y4154627D01*
X4896307Y4147007D01*
X4886045Y4137964D01*
X4877003Y4127703D01*
X4869383Y4116324D01*
X4863338Y4104030D01*
X4858969Y4091076D01*
X4856276Y4077665D01*
X4855362Y4064000D01*
X4856276Y4050334D01*
X4858969Y4036923D01*
X4863338Y4023969D01*
X4869383Y4011676D01*
X4877003Y4000296D01*
X4886045Y3990035D01*
X4896307Y3980992D01*
X4907686Y3973372D01*
X4919980Y3967327D01*
X4932934Y3962958D01*
X4946345Y3960266D01*
G37*
G36*
X5468010Y3959351D02*
G01*
X5481675Y3960266D01*
X5495086Y3962958D01*
X5508040Y3967327D01*
X5520334Y3973372D01*
X5531713Y3980992D01*
X5541975Y3990035D01*
X5551017Y4000296D01*
X5558586Y4011676D01*
X5564682Y4023969D01*
X5569051Y4036923D01*
X5571744Y4050334D01*
X5572607Y4064000D01*
X5571744Y4077665D01*
X5569051Y4091076D01*
X5564682Y4104030D01*
X5558586Y4116324D01*
X5551017Y4127703D01*
X5541975Y4137964D01*
X5531713Y4147007D01*
X5520334Y4154627D01*
X5508040Y4160672D01*
X5495086Y4165041D01*
X5481675Y4167733D01*
X5468010Y4168648D01*
X5454345Y4167733D01*
X5440934Y4165041D01*
X5427980Y4160672D01*
X5415686Y4154627D01*
X5404307Y4147007D01*
X5393994Y4137964D01*
X5385003Y4127703D01*
X5377383Y4116324D01*
X5371338Y4104030D01*
X5366918Y4091076D01*
X5364276Y4077665D01*
X5363362Y4064000D01*
X5364276Y4050334D01*
X5366918Y4036923D01*
X5371338Y4023969D01*
X5377383Y4011676D01*
X5385003Y4000296D01*
X5393994Y3990035D01*
X5404307Y3980992D01*
X5415686Y3973372D01*
X5427980Y3967327D01*
X5440934Y3962958D01*
X5454345Y3960266D01*
G37*
G36*
X9702800Y5020208D02*
G01*
X9723526Y5021173D01*
X9744100Y5024018D01*
X9764369Y5028793D01*
X9784029Y5035397D01*
X9803028Y5043779D01*
X9821214Y5053888D01*
X9838334Y5065623D01*
X9854336Y5078882D01*
X9869017Y5093563D01*
X9882276Y5109565D01*
X9894011Y5126685D01*
X9904120Y5144871D01*
X9912502Y5163870D01*
X9919106Y5183530D01*
X9923881Y5203799D01*
X9926726Y5224373D01*
X9927691Y5245100D01*
X9926726Y5265826D01*
X9923881Y5286400D01*
X9919106Y5306669D01*
X9912502Y5326329D01*
X9904120Y5345328D01*
X9894011Y5363514D01*
X9882276Y5380634D01*
X9869017Y5396636D01*
X9854336Y5411317D01*
X9838334Y5424576D01*
X9821214Y5436311D01*
X9803028Y5446420D01*
X9784029Y5454802D01*
X9764369Y5461406D01*
X9744100Y5466181D01*
X9723526Y5469026D01*
X9702800Y5469991D01*
X9682073Y5469026D01*
X9661499Y5466181D01*
X9641230Y5461406D01*
X9621570Y5454802D01*
X9602571Y5446420D01*
X9584385Y5436311D01*
X9567265Y5424576D01*
X9551263Y5411317D01*
X9536582Y5396636D01*
X9523323Y5380634D01*
X9511588Y5363514D01*
X9501479Y5345328D01*
X9493097Y5326329D01*
X9486493Y5306669D01*
X9481718Y5286400D01*
X9478873Y5265826D01*
X9477908Y5245100D01*
X9478873Y5224373D01*
X9481718Y5203799D01*
X9486493Y5183530D01*
X9493097Y5163870D01*
X9501479Y5144871D01*
X9511588Y5126685D01*
X9523323Y5109565D01*
X9536582Y5093563D01*
X9551263Y5078882D01*
X9567265Y5065623D01*
X9584385Y5053888D01*
X9602571Y5043779D01*
X9621570Y5035397D01*
X9641230Y5028793D01*
X9661499Y5024018D01*
X9682073Y5021173D01*
G37*
G36*
X7581900Y5032908D02*
G01*
X7602626Y5033873D01*
X7623200Y5036718D01*
X7643469Y5041493D01*
X7663129Y5048097D01*
X7682128Y5056479D01*
X7700314Y5066588D01*
X7717434Y5078323D01*
X7733436Y5091582D01*
X7748117Y5106263D01*
X7761376Y5122265D01*
X7773111Y5139385D01*
X7783220Y5157571D01*
X7791602Y5176570D01*
X7798206Y5196230D01*
X7802981Y5216499D01*
X7805826Y5237073D01*
X7806791Y5257800D01*
X7805826Y5278526D01*
X7802981Y5299100D01*
X7798206Y5319369D01*
X7791602Y5339029D01*
X7783220Y5358028D01*
X7773111Y5376214D01*
X7761376Y5393334D01*
X7748117Y5409336D01*
X7733436Y5424017D01*
X7717434Y5437276D01*
X7700314Y5449011D01*
X7682128Y5459120D01*
X7663129Y5467502D01*
X7643469Y5474106D01*
X7623200Y5478881D01*
X7602626Y5481726D01*
X7581900Y5482691D01*
X7561173Y5481726D01*
X7540599Y5478881D01*
X7520330Y5474106D01*
X7500670Y5467502D01*
X7481671Y5459120D01*
X7463485Y5449011D01*
X7446365Y5437276D01*
X7430363Y5424017D01*
X7415682Y5409336D01*
X7402423Y5393334D01*
X7390688Y5376214D01*
X7380579Y5358028D01*
X7372197Y5339029D01*
X7365593Y5319369D01*
X7360818Y5299100D01*
X7357973Y5278526D01*
X7357008Y5257800D01*
X7357973Y5237073D01*
X7360818Y5216499D01*
X7365593Y5196230D01*
X7372197Y5176570D01*
X7380579Y5157571D01*
X7390688Y5139385D01*
X7402423Y5122265D01*
X7415682Y5106263D01*
X7430363Y5091582D01*
X7446365Y5078323D01*
X7463485Y5066588D01*
X7481671Y5056479D01*
X7500670Y5048097D01*
X7520330Y5041493D01*
X7540599Y5036718D01*
X7561173Y5033873D01*
G37*
G36*
X5346700Y5229352D02*
G01*
X5360365Y5230266D01*
X5373776Y5232958D01*
X5386730Y5237327D01*
X5399024Y5243372D01*
X5410403Y5250992D01*
X5420664Y5260035D01*
X5429707Y5270296D01*
X5437327Y5281676D01*
X5443372Y5293969D01*
X5447741Y5306923D01*
X5450433Y5320334D01*
X5451348Y5334000D01*
X5450433Y5347665D01*
X5447741Y5361076D01*
X5443372Y5374030D01*
X5437327Y5386324D01*
X5429707Y5397703D01*
X5420664Y5407964D01*
X5410403Y5417007D01*
X5399024Y5424627D01*
X5386730Y5430672D01*
X5373776Y5435041D01*
X5360365Y5437733D01*
X5346700Y5438648D01*
X5333034Y5437733D01*
X5319623Y5435041D01*
X5306669Y5430672D01*
X5294376Y5424627D01*
X5282996Y5417007D01*
X5272735Y5407964D01*
X5263692Y5397703D01*
X5256072Y5386324D01*
X5250027Y5374030D01*
X5245658Y5361076D01*
X5242966Y5347665D01*
X5242052Y5334000D01*
X5242966Y5320334D01*
X5245658Y5306923D01*
X5250027Y5293969D01*
X5256072Y5281676D01*
X5263692Y5270296D01*
X5272735Y5260035D01*
X5282996Y5250992D01*
X5294376Y5243372D01*
X5306669Y5237327D01*
X5319623Y5232958D01*
X5333034Y5230266D01*
G37*
G36*
X5138420Y5240121D02*
G01*
X5145024Y5243372D01*
X5156403Y5250992D01*
X5166664Y5260035D01*
X5175707Y5270296D01*
X5183327Y5281676D01*
X5186578Y5288280D01*
X5138420Y5288280D01*
G37*
G36*
X5046980Y5240121D02*
G01*
X5046980Y5288280D01*
X4998821Y5288280D01*
X5002072Y5281676D01*
X5009692Y5270296D01*
X5018735Y5260035D01*
X5028996Y5250992D01*
X5040376Y5243372D01*
G37*
G36*
X6134100Y5285892D02*
G01*
X6154928Y5286857D01*
X6175603Y5289753D01*
X6195923Y5294528D01*
X6215684Y5301132D01*
X6234785Y5309565D01*
X6253022Y5319725D01*
X6270244Y5331510D01*
X6286296Y5344871D01*
X6301028Y5359603D01*
X6314389Y5375656D01*
X6326174Y5392877D01*
X6336334Y5411114D01*
X6344767Y5430215D01*
X6351371Y5449976D01*
X6356146Y5470296D01*
X6359042Y5490972D01*
X6360007Y5511800D01*
X6359042Y5532628D01*
X6356146Y5553303D01*
X6351371Y5573623D01*
X6344767Y5593384D01*
X6336334Y5612485D01*
X6326174Y5630722D01*
X6314389Y5647944D01*
X6301028Y5663996D01*
X6286296Y5678728D01*
X6270244Y5692089D01*
X6253022Y5703874D01*
X6234785Y5714034D01*
X6215684Y5722467D01*
X6195923Y5729071D01*
X6175603Y5733846D01*
X6154928Y5736742D01*
X6134100Y5737707D01*
X6113272Y5736742D01*
X6092596Y5733846D01*
X6072276Y5729071D01*
X6052515Y5722467D01*
X6033414Y5714034D01*
X6015177Y5703874D01*
X5997956Y5692089D01*
X5981903Y5678728D01*
X5967171Y5663996D01*
X5953810Y5647944D01*
X5942025Y5630722D01*
X5931865Y5612485D01*
X5923432Y5593384D01*
X5916828Y5573623D01*
X5912053Y5553303D01*
X5909157Y5532628D01*
X5908192Y5511800D01*
X5909157Y5490972D01*
X5912053Y5470296D01*
X5916828Y5449976D01*
X5923432Y5430215D01*
X5931865Y5411114D01*
X5942025Y5392877D01*
X5953810Y5375656D01*
X5967171Y5359603D01*
X5981903Y5344871D01*
X5997956Y5331510D01*
X6015177Y5319725D01*
X6033414Y5309565D01*
X6052515Y5301132D01*
X6072276Y5294528D01*
X6092596Y5289753D01*
X6113272Y5286857D01*
G37*
G36*
X4521200Y5285892D02*
G01*
X4542028Y5286857D01*
X4562703Y5289753D01*
X4583023Y5294528D01*
X4602784Y5301132D01*
X4621885Y5309565D01*
X4640122Y5319725D01*
X4657344Y5331510D01*
X4673396Y5344871D01*
X4688128Y5359603D01*
X4701489Y5375656D01*
X4713274Y5392877D01*
X4723434Y5411114D01*
X4731867Y5430215D01*
X4738471Y5449976D01*
X4743246Y5470296D01*
X4746142Y5490972D01*
X4747107Y5511800D01*
X4746142Y5532628D01*
X4743246Y5553303D01*
X4738471Y5573623D01*
X4731867Y5593384D01*
X4723434Y5612485D01*
X4713274Y5630722D01*
X4701489Y5647944D01*
X4688128Y5663996D01*
X4673396Y5678728D01*
X4657344Y5692089D01*
X4640122Y5703874D01*
X4621885Y5714034D01*
X4602784Y5722467D01*
X4583023Y5729071D01*
X4562703Y5733846D01*
X4542028Y5736742D01*
X4521200Y5737707D01*
X4500372Y5736742D01*
X4479696Y5733846D01*
X4459376Y5729071D01*
X4439615Y5722467D01*
X4420514Y5714034D01*
X4402277Y5703874D01*
X4385056Y5692089D01*
X4369003Y5678728D01*
X4354271Y5663996D01*
X4340910Y5647944D01*
X4329125Y5630722D01*
X4318965Y5612485D01*
X4310532Y5593384D01*
X4303928Y5573623D01*
X4299153Y5553303D01*
X4296257Y5532628D01*
X4295292Y5511800D01*
X4296257Y5490972D01*
X4299153Y5470296D01*
X4303928Y5449976D01*
X4310532Y5430215D01*
X4318965Y5411114D01*
X4329125Y5392877D01*
X4340910Y5375656D01*
X4354271Y5359603D01*
X4369003Y5344871D01*
X4385056Y5331510D01*
X4402277Y5319725D01*
X4420514Y5309565D01*
X4439615Y5301132D01*
X4459376Y5294528D01*
X4479696Y5289753D01*
X4500372Y5286857D01*
G37*
G36*
X9321800Y5373217D02*
G01*
X9336989Y5374132D01*
X9351924Y5376875D01*
X9366453Y5381396D01*
X9380321Y5387644D01*
X9393326Y5395518D01*
X9405264Y5404866D01*
X9416034Y5415635D01*
X9425381Y5427573D01*
X9433255Y5440578D01*
X9439503Y5454446D01*
X9444024Y5468975D01*
X9446768Y5483910D01*
X9447682Y5499100D01*
X9446768Y5514289D01*
X9444024Y5529224D01*
X9439503Y5543753D01*
X9433255Y5557621D01*
X9425381Y5570626D01*
X9416034Y5582564D01*
X9405264Y5593334D01*
X9393326Y5602681D01*
X9380321Y5610555D01*
X9366453Y5616803D01*
X9351924Y5621324D01*
X9336989Y5624068D01*
X9321800Y5624982D01*
X9306610Y5624068D01*
X9291675Y5621324D01*
X9277146Y5616803D01*
X9263278Y5610555D01*
X9250273Y5602681D01*
X9238335Y5593334D01*
X9227566Y5582564D01*
X9218218Y5570626D01*
X9210344Y5557621D01*
X9204096Y5543753D01*
X9199575Y5529224D01*
X9196832Y5514289D01*
X9195917Y5499100D01*
X9196832Y5483910D01*
X9199575Y5468975D01*
X9204096Y5454446D01*
X9210344Y5440578D01*
X9218218Y5427573D01*
X9227566Y5415635D01*
X9238335Y5404866D01*
X9250273Y5395518D01*
X9263278Y5387644D01*
X9277146Y5381396D01*
X9291675Y5376875D01*
X9306610Y5374132D01*
G37*
G36*
X5138420Y5379720D02*
G01*
X5186578Y5379720D01*
X5183327Y5386324D01*
X5175707Y5397703D01*
X5166664Y5407964D01*
X5156403Y5417007D01*
X5145024Y5424627D01*
X5138420Y5427878D01*
G37*
G36*
X4998821Y5379720D02*
G01*
X5046980Y5379720D01*
X5046980Y5427878D01*
X5040376Y5424627D01*
X5028996Y5417007D01*
X5018735Y5407964D01*
X5009692Y5397703D01*
X5002072Y5386324D01*
G37*
G36*
X7200900Y5385917D02*
G01*
X7216089Y5386832D01*
X7231024Y5389575D01*
X7245553Y5394096D01*
X7259421Y5400344D01*
X7272426Y5408218D01*
X7284364Y5417566D01*
X7295134Y5428335D01*
X7304481Y5440273D01*
X7312355Y5453278D01*
X7318603Y5467146D01*
X7323124Y5481675D01*
X7325868Y5496610D01*
X7326782Y5511800D01*
X7325868Y5526989D01*
X7323124Y5541924D01*
X7318603Y5556453D01*
X7312355Y5570321D01*
X7304481Y5583326D01*
X7295134Y5595264D01*
X7284364Y5606034D01*
X7272426Y5615381D01*
X7259421Y5623255D01*
X7245553Y5629503D01*
X7231024Y5634024D01*
X7216089Y5636768D01*
X7200900Y5637682D01*
X7185710Y5636768D01*
X7170775Y5634024D01*
X7156246Y5629503D01*
X7142378Y5623255D01*
X7129373Y5615381D01*
X7117435Y5606034D01*
X7106666Y5595264D01*
X7097318Y5583326D01*
X7089444Y5570321D01*
X7083196Y5556453D01*
X7078675Y5541924D01*
X7075931Y5526989D01*
X7075017Y5511800D01*
X7075931Y5496610D01*
X7078675Y5481675D01*
X7083196Y5467146D01*
X7089444Y5453278D01*
X7097318Y5440273D01*
X7106666Y5428335D01*
X7117435Y5417566D01*
X7129373Y5408218D01*
X7142378Y5400344D01*
X7156246Y5394096D01*
X7170775Y5389575D01*
X7185710Y5386832D01*
G37*
G36*
X10013137Y5640679D02*
G01*
X10015321Y5641644D01*
X10028326Y5649518D01*
X10040264Y5658866D01*
X10051034Y5669635D01*
X10060381Y5681573D01*
X10068255Y5694578D01*
X10069220Y5696762D01*
X10013137Y5696762D01*
G37*
G36*
X9900462Y5640679D02*
G01*
X9900462Y5696762D01*
X9844379Y5696762D01*
X9845344Y5694578D01*
X9853218Y5681573D01*
X9862566Y5669635D01*
X9873335Y5658866D01*
X9885273Y5649518D01*
X9898278Y5641644D01*
G37*
G36*
X7892237Y5653379D02*
G01*
X7894421Y5654344D01*
X7907426Y5662218D01*
X7919364Y5671566D01*
X7930134Y5682335D01*
X7939481Y5694273D01*
X7947355Y5707278D01*
X7948320Y5709462D01*
X7892237Y5709462D01*
G37*
G36*
X7779562Y5653379D02*
G01*
X7779562Y5709462D01*
X7723479Y5709462D01*
X7724444Y5707278D01*
X7732318Y5694273D01*
X7741666Y5682335D01*
X7752435Y5671566D01*
X7764373Y5662218D01*
X7777378Y5654344D01*
G37*
G36*
X9844379Y5809437D02*
G01*
X9900462Y5809437D01*
X9900462Y5865520D01*
X9898278Y5864555D01*
X9885273Y5856681D01*
X9873335Y5847334D01*
X9862566Y5836564D01*
X9853218Y5824626D01*
X9845344Y5811621D01*
G37*
G36*
X10013137Y5809437D02*
G01*
X10069220Y5809437D01*
X10068255Y5811621D01*
X10060381Y5824626D01*
X10051034Y5836564D01*
X10040264Y5847334D01*
X10028326Y5856681D01*
X10015321Y5864555D01*
X10013137Y5865520D01*
G37*
G36*
X7892237Y5822137D02*
G01*
X7948320Y5822137D01*
X7947355Y5824321D01*
X7939481Y5837326D01*
X7930134Y5849264D01*
X7919364Y5860034D01*
X7907426Y5869381D01*
X7894421Y5877255D01*
X7892237Y5878220D01*
G37*
G36*
X7723479Y5822137D02*
G01*
X7779562Y5822137D01*
X7779562Y5878220D01*
X7777378Y5877255D01*
X7764373Y5869381D01*
X7752435Y5860034D01*
X7741666Y5849264D01*
X7732318Y5837326D01*
X7724444Y5824321D01*
G37*
G36*
X8636000Y7014108D02*
G01*
X8656726Y7015073D01*
X8677300Y7017918D01*
X8697569Y7022693D01*
X8717229Y7029297D01*
X8736228Y7037679D01*
X8754414Y7047788D01*
X8771534Y7059523D01*
X8787536Y7072782D01*
X8802217Y7087463D01*
X8815476Y7103465D01*
X8827211Y7120585D01*
X8837320Y7138771D01*
X8845702Y7157770D01*
X8852306Y7177430D01*
X8857081Y7197699D01*
X8859926Y7218273D01*
X8860891Y7239000D01*
X8859926Y7259726D01*
X8857081Y7280300D01*
X8852306Y7300569D01*
X8845702Y7320229D01*
X8837320Y7339228D01*
X8827211Y7357414D01*
X8815476Y7374534D01*
X8802217Y7390536D01*
X8787536Y7405217D01*
X8771534Y7418476D01*
X8754414Y7430211D01*
X8736228Y7440320D01*
X8717229Y7448702D01*
X8697569Y7455306D01*
X8677300Y7460081D01*
X8656726Y7462926D01*
X8636000Y7463891D01*
X8615273Y7462926D01*
X8594699Y7460081D01*
X8574430Y7455306D01*
X8554770Y7448702D01*
X8535771Y7440320D01*
X8517585Y7430211D01*
X8500465Y7418476D01*
X8484463Y7405217D01*
X8469782Y7390536D01*
X8456523Y7374534D01*
X8444788Y7357414D01*
X8434679Y7339228D01*
X8426297Y7320229D01*
X8419693Y7300569D01*
X8414918Y7280300D01*
X8412073Y7259726D01*
X8411108Y7239000D01*
X8412073Y7218273D01*
X8414918Y7197699D01*
X8419693Y7177430D01*
X8426297Y7157770D01*
X8434679Y7138771D01*
X8444788Y7120585D01*
X8456523Y7103465D01*
X8469782Y7087463D01*
X8484463Y7072782D01*
X8500465Y7059523D01*
X8517585Y7047788D01*
X8535771Y7037679D01*
X8554770Y7029297D01*
X8574430Y7022693D01*
X8594699Y7017918D01*
X8615273Y7015073D01*
G37*
G36*
X8255000Y7367117D02*
G01*
X8270189Y7368031D01*
X8285124Y7370775D01*
X8299653Y7375296D01*
X8313521Y7381544D01*
X8326526Y7389418D01*
X8338464Y7398766D01*
X8349234Y7409535D01*
X8358581Y7421473D01*
X8366455Y7434478D01*
X8372703Y7448346D01*
X8377224Y7462875D01*
X8379968Y7477810D01*
X8380882Y7493000D01*
X8379968Y7508189D01*
X8377224Y7523124D01*
X8372703Y7537653D01*
X8366455Y7551521D01*
X8358581Y7564526D01*
X8349234Y7576464D01*
X8338464Y7587234D01*
X8326526Y7596581D01*
X8313521Y7604455D01*
X8299653Y7610703D01*
X8285124Y7615224D01*
X8270189Y7617968D01*
X8255000Y7618882D01*
X8239810Y7617968D01*
X8224875Y7615224D01*
X8210346Y7610703D01*
X8196478Y7604455D01*
X8183473Y7596581D01*
X8171535Y7587234D01*
X8160766Y7576464D01*
X8151418Y7564526D01*
X8143544Y7551521D01*
X8137296Y7537653D01*
X8132775Y7523124D01*
X8130031Y7508189D01*
X8129117Y7493000D01*
X8130031Y7477810D01*
X8132775Y7462875D01*
X8137296Y7448346D01*
X8143544Y7434478D01*
X8151418Y7421473D01*
X8160766Y7409535D01*
X8171535Y7398766D01*
X8183473Y7389418D01*
X8196478Y7381544D01*
X8210346Y7375296D01*
X8224875Y7370775D01*
X8239810Y7368031D01*
G37*
G36*
X8946337Y7634579D02*
G01*
X8948521Y7635544D01*
X8961526Y7643418D01*
X8973464Y7652766D01*
X8984234Y7663535D01*
X8993581Y7675473D01*
X9001455Y7688478D01*
X9002420Y7690662D01*
X8946337Y7690662D01*
G37*
G36*
X8833662Y7634579D02*
G01*
X8833662Y7690662D01*
X8777579Y7690662D01*
X8778544Y7688478D01*
X8786418Y7675473D01*
X8795766Y7663535D01*
X8806535Y7652766D01*
X8818473Y7643418D01*
X8831478Y7635544D01*
G37*
G36*
X2460091Y7653832D02*
G01*
X2473909Y7654747D01*
X2487523Y7657439D01*
X2500630Y7661859D01*
X2513025Y7668006D01*
X2524556Y7675676D01*
X2534970Y7684820D01*
X2544114Y7695234D01*
X2551785Y7706766D01*
X2557932Y7719161D01*
X2562352Y7732318D01*
X2565095Y7745882D01*
X2565958Y7759700D01*
X2565095Y7773517D01*
X2562352Y7787131D01*
X2557932Y7800238D01*
X2551785Y7812633D01*
X2544114Y7824165D01*
X2534970Y7834579D01*
X2524556Y7843723D01*
X2513025Y7851394D01*
X2500630Y7857540D01*
X2487523Y7861960D01*
X2473909Y7864703D01*
X2460091Y7865567D01*
X2446274Y7864703D01*
X2432710Y7861960D01*
X2419553Y7857540D01*
X2407158Y7851394D01*
X2395626Y7843723D01*
X2385212Y7834579D01*
X2376068Y7824165D01*
X2368397Y7812633D01*
X2362250Y7800238D01*
X2357831Y7787131D01*
X2355138Y7773517D01*
X2354224Y7759700D01*
X2355138Y7745882D01*
X2357831Y7732318D01*
X2362250Y7719161D01*
X2368397Y7706766D01*
X2376068Y7695234D01*
X2385212Y7684820D01*
X2395626Y7675676D01*
X2407158Y7668006D01*
X2419553Y7661859D01*
X2432710Y7657439D01*
X2446274Y7654747D01*
G37*
G36*
X2714091Y7653832D02*
G01*
X2727909Y7654696D01*
X2741523Y7657439D01*
X2754630Y7661859D01*
X2767025Y7668006D01*
X2778556Y7675676D01*
X2788970Y7684820D01*
X2798114Y7695234D01*
X2805785Y7706766D01*
X2811932Y7719161D01*
X2816402Y7732318D01*
X2819095Y7745882D01*
X2820009Y7759700D01*
X2819095Y7773517D01*
X2816402Y7787081D01*
X2811932Y7800238D01*
X2805785Y7812633D01*
X2798114Y7824165D01*
X2788970Y7834579D01*
X2778556Y7843723D01*
X2767025Y7851394D01*
X2754630Y7857540D01*
X2741523Y7861960D01*
X2727909Y7864703D01*
X2714091Y7865567D01*
X2700274Y7864703D01*
X2686710Y7861960D01*
X2673604Y7857540D01*
X2661158Y7851394D01*
X2649626Y7843723D01*
X2639212Y7834579D01*
X2630119Y7824165D01*
X2622397Y7812633D01*
X2616250Y7800238D01*
X2611831Y7787081D01*
X2609138Y7773517D01*
X2608224Y7759700D01*
X2609138Y7745882D01*
X2611831Y7732318D01*
X2616250Y7719161D01*
X2622397Y7706766D01*
X2630119Y7695234D01*
X2639212Y7684820D01*
X2649626Y7675676D01*
X2661158Y7668006D01*
X2673604Y7661859D01*
X2686710Y7657439D01*
X2700274Y7654696D01*
G37*
G36*
X2968091Y7653832D02*
G01*
X2981909Y7654696D01*
X2995523Y7657439D01*
X3008630Y7661859D01*
X3021025Y7668006D01*
X3032556Y7675676D01*
X3042970Y7684820D01*
X3052114Y7695234D01*
X3059785Y7706766D01*
X3065932Y7719161D01*
X3070402Y7732318D01*
X3073095Y7745882D01*
X3074009Y7759700D01*
X3073095Y7773517D01*
X3070402Y7787081D01*
X3065932Y7800238D01*
X3059785Y7812633D01*
X3052114Y7824165D01*
X3042970Y7834579D01*
X3032556Y7843723D01*
X3021025Y7851394D01*
X3008630Y7857540D01*
X2995523Y7861960D01*
X2981909Y7864703D01*
X2968091Y7865567D01*
X2954274Y7864703D01*
X2940710Y7861960D01*
X2927604Y7857540D01*
X2915158Y7851394D01*
X2903626Y7843723D01*
X2893212Y7834579D01*
X2884119Y7824165D01*
X2876397Y7812633D01*
X2870250Y7800238D01*
X2865831Y7787081D01*
X2863138Y7773517D01*
X2862224Y7759700D01*
X2863138Y7745882D01*
X2865831Y7732318D01*
X2870250Y7719161D01*
X2876397Y7706766D01*
X2884119Y7695234D01*
X2893212Y7684820D01*
X2903626Y7675676D01*
X2915158Y7668006D01*
X2927604Y7661859D01*
X2940710Y7657439D01*
X2954274Y7654696D01*
G37*
G36*
X2252472Y7664754D02*
G01*
X2259025Y7668006D01*
X2270556Y7675676D01*
X2280970Y7684820D01*
X2290114Y7695234D01*
X2297785Y7706766D01*
X2301036Y7713370D01*
X2252472Y7713370D01*
G37*
G36*
X2159762Y7664754D02*
G01*
X2159762Y7713370D01*
X2111146Y7713370D01*
X2114397Y7706766D01*
X2122068Y7695234D01*
X2131212Y7684820D01*
X2141626Y7675676D01*
X2153158Y7668006D01*
G37*
G36*
X8946337Y7803337D02*
G01*
X9002420Y7803337D01*
X9001455Y7805521D01*
X8993581Y7818526D01*
X8984234Y7830464D01*
X8973464Y7841234D01*
X8961526Y7850581D01*
X8948521Y7858455D01*
X8946337Y7859420D01*
G37*
G36*
X8777579Y7803337D02*
G01*
X8833662Y7803337D01*
X8833662Y7859420D01*
X8831478Y7858455D01*
X8818473Y7850581D01*
X8806535Y7841234D01*
X8795766Y7830464D01*
X8786418Y7818526D01*
X8778544Y7805521D01*
G37*
G36*
X2252472Y7806029D02*
G01*
X2301036Y7806029D01*
X2297785Y7812633D01*
X2290114Y7824165D01*
X2280970Y7834579D01*
X2270556Y7843723D01*
X2259025Y7851394D01*
X2252472Y7854645D01*
G37*
G36*
X2111146Y7806029D02*
G01*
X2159762Y7806029D01*
X2159762Y7854645D01*
X2153158Y7851394D01*
X2141626Y7843723D01*
X2131212Y7834579D01*
X2122068Y7824165D01*
X2114397Y7812633D01*
G37*
G36*
X10304475Y7814564D02*
G01*
X10320324Y7814564D01*
X10336022Y7816392D01*
X10351363Y7819999D01*
X10366248Y7825435D01*
X10380370Y7832496D01*
X10393527Y7841183D01*
X10405668Y7851343D01*
X10416489Y7862874D01*
X10425938Y7875524D01*
X10433812Y7889189D01*
X10440111Y7903718D01*
X10444632Y7918856D01*
X10447375Y7934401D01*
X10448290Y7950200D01*
X10447375Y7965998D01*
X10444632Y7981543D01*
X10440111Y7996681D01*
X10433812Y8011210D01*
X10425938Y8024875D01*
X10416489Y8037525D01*
X10405668Y8049056D01*
X10393527Y8059216D01*
X10380370Y8067903D01*
X10366248Y8074964D01*
X10351363Y8080400D01*
X10336022Y8084007D01*
X10320324Y8085836D01*
X10304475Y8085836D01*
X10288778Y8084007D01*
X10273436Y8080400D01*
X10258552Y8074964D01*
X10244429Y8067903D01*
X10231272Y8059216D01*
X10219131Y8049056D01*
X10208310Y8037525D01*
X10198862Y8024875D01*
X10190988Y8011210D01*
X10184688Y7996681D01*
X10180167Y7981543D01*
X10177424Y7965998D01*
X10176510Y7950200D01*
X10177424Y7934401D01*
X10180167Y7918856D01*
X10184688Y7903718D01*
X10190988Y7889189D01*
X10198862Y7875524D01*
X10208310Y7862874D01*
X10219131Y7851343D01*
X10231272Y7841183D01*
X10244429Y7832496D01*
X10258552Y7825435D01*
X10273436Y7819999D01*
X10288778Y7816392D01*
G37*
G36*
X982675Y7827264D02*
G01*
X998524Y7827264D01*
X1014221Y7829092D01*
X1029563Y7832699D01*
X1044448Y7838135D01*
X1058570Y7845196D01*
X1071727Y7853883D01*
X1083868Y7864043D01*
X1094689Y7875574D01*
X1104138Y7888224D01*
X1112012Y7901889D01*
X1118311Y7916418D01*
X1122832Y7931556D01*
X1125575Y7947101D01*
X1126490Y7962900D01*
X1125575Y7978698D01*
X1122832Y7994243D01*
X1118311Y8009381D01*
X1112012Y8023910D01*
X1104138Y8037575D01*
X1094689Y8050225D01*
X1083868Y8061756D01*
X1071727Y8071916D01*
X1058570Y8080603D01*
X1044448Y8087664D01*
X1029563Y8093100D01*
X1014221Y8096707D01*
X998524Y8098536D01*
X982675Y8098536D01*
X966978Y8096707D01*
X951636Y8093100D01*
X936752Y8087664D01*
X922629Y8080603D01*
X909472Y8071916D01*
X897331Y8061756D01*
X886510Y8050225D01*
X877062Y8037575D01*
X869187Y8023910D01*
X862888Y8009381D01*
X858367Y7994243D01*
X855624Y7978698D01*
X854710Y7962900D01*
X855624Y7947101D01*
X858367Y7931556D01*
X862888Y7916418D01*
X869187Y7901889D01*
X877062Y7888224D01*
X886510Y7875574D01*
X897331Y7864043D01*
X909472Y7853883D01*
X922629Y7845196D01*
X936752Y7838135D01*
X951636Y7832699D01*
X966978Y7829092D01*
G37*

%LPD*%
D10*
X4089275Y1393469D02*
G01*
X4089275Y1511427D01*
X5613275Y1511427D02*
G01*
X6315255Y2213406D01*
X7371209Y2213406D01*
D11*
X7848602Y5753100D02*
G01*
X7835902Y5765800D01*
D12*
X5600702Y5334000D02*
G01*
X3806776Y3540074D01*
X2308430Y3540074D01*
X2057529Y3289172D01*
D10*
X5105275Y1511427D02*
G01*
X5938344Y2344496D01*
X9018120Y2344496D01*
X9174609Y2188006D01*
D13*
G01*
X7371206Y2663393D03*
G01*
X8021193Y2663393D03*
G01*
X8021193Y2213406D03*
G01*
X7371206Y2213406D03*
G01*
X9174606Y2637993D03*
G01*
X9824593Y2637993D03*
G01*
X9824593Y2188006D03*
G01*
X9174606Y2188006D03*
G01*
X8255000Y7493000D03*
G01*
X8890000Y7747000D03*
G01*
X7200900Y5511800D03*
G01*
X7835900Y5765800D03*
G01*
X9321800Y5499100D03*
G01*
X9956800Y5753100D03*
D14*
G01*
X5092700Y5334000D03*
G01*
X5346700Y5334000D03*
G01*
X5600700Y5334000D03*
G01*
X5722010Y4064000D03*
G01*
X5468010Y4064000D03*
G01*
X5214010Y4064000D03*
G01*
X4960010Y4064000D03*
D15*
G01*
X5867527Y3289172D03*
G01*
X5613527Y3289172D03*
G01*
X5359527Y3289172D03*
G01*
X5105527Y3289172D03*
G01*
X4851527Y3289172D03*
G01*
X4597527Y3289172D03*
G01*
X4343527Y3289172D03*
G01*
X4089527Y3289172D03*
G01*
X3835527Y3289172D03*
G01*
X3581527Y3289172D03*
G01*
X3327527Y3289172D03*
G01*
X3073527Y3289172D03*
G01*
X2819527Y3289172D03*
G01*
X2565527Y3289172D03*
G01*
X2311527Y3289172D03*
G01*
X2057527Y3289172D03*
G01*
X1803527Y3289172D03*
G01*
X1549527Y3289172D03*
G01*
X1295527Y3289172D03*
G01*
X1041527Y3289172D03*
G01*
X1041272Y1511427D03*
G01*
X1295272Y1511427D03*
G01*
X1549272Y1511427D03*
G01*
X1803272Y1511427D03*
G01*
X2057272Y1511427D03*
G01*
X2311272Y1511427D03*
G01*
X2565272Y1511427D03*
G01*
X2819272Y1511427D03*
G01*
X3073272Y1511427D03*
G01*
X3327272Y1511427D03*
G01*
X3581272Y1511427D03*
G01*
X3835272Y1511427D03*
G01*
X4089272Y1511427D03*
G01*
X4343272Y1511427D03*
G01*
X4597272Y1511427D03*
G01*
X4851272Y1511427D03*
G01*
X5105272Y1511427D03*
G01*
X5359272Y1511427D03*
G01*
X5613272Y1511427D03*
G01*
X5867272Y1511427D03*
D17*
G01*
X2460091Y7759700D03*
G01*
X2206091Y7759700D03*
G01*
X2714091Y7759700D03*
G01*
X2968091Y7759700D03*
M02*
