G04 Layer: BottomLayer*
G04 EasyEDA v6.5.54, 2026-10-07 21:13:40*
G04 d688497f65834f7bbd16458d2cacf869,4039c5be123041f2956dd00d94aebb74,10*
G04 Gerber Generator version 0.2*
G04 Scale: 100 percent, Rotated: No, Reflected: No *
G04 Dimensions in millimeters *
G04 leading zeros omitted , absolute positions ,4 integer and 5 decimal *
%FSLAX45Y45*%
%MOMM*%

%ADD10C,0.2540*%
%ADD11C,2.0000*%
%ADD12C,1.5748*%
%ADD13C,1.5240*%
%ADD14C,1.6000*%
%ADD15C,0.0170*%

%LPD*%
D10*
X4343275Y1511427D02*
G01*
X5486529Y2654680D01*
X5486529Y3313455D01*
X5828845Y3655771D01*
X5828845Y4526076D01*
X8255002Y6952234D01*
X8255002Y7493000D01*
X4597275Y1511427D02*
G01*
X7200902Y4115054D01*
X7200902Y5511800D01*
X4851275Y1511427D02*
G01*
X8838948Y5499100D01*
X9321802Y5499100D01*
X2971800Y4165600D02*
G01*
X2968094Y2168245D01*
X2311275Y1511427D01*
X2971800Y7759700D02*
G01*
X2971800Y4171213D01*
X5214111Y4064000D02*
G01*
X5106924Y4171187D01*
X3237484Y4178300D01*
X2971291Y3912107D01*
X1549275Y1511427D02*
G01*
X1549529Y1511680D01*
X5468111Y4064000D02*
G01*
X4816856Y3412744D01*
X4308602Y3412744D01*
X4216400Y3320542D01*
X4216400Y3162554D01*
X2565400Y1511300D01*
X2460094Y7759700D02*
G01*
X2463800Y7480300D01*
X2463800Y7480300D01*
X2070100Y7175500D01*
X2057529Y3289172D01*
X2713990Y7759700D02*
G01*
X2866390Y7912100D01*
X3225800Y7912100D01*
X4089400Y6812026D01*
X4089400Y5442712D01*
X5468111Y4064000D01*
D11*
G01*
X7371206Y2663393D03*
G01*
X8021193Y2663393D03*
G01*
X8021193Y2213406D03*
G01*
X7371206Y2213406D03*
G01*
X9174606Y2637993D03*
G01*
X9824593Y2637993D03*
G01*
X9824593Y2188006D03*
G01*
X9174606Y2188006D03*
G01*
X8255000Y7493000D03*
G01*
X8890000Y7747000D03*
G01*
X7200900Y5511800D03*
G01*
X7835900Y5765800D03*
G01*
X9321800Y5499100D03*
G01*
X9956800Y5753100D03*
D12*
G01*
X5092700Y5334000D03*
G01*
X5346700Y5334000D03*
G01*
X5600700Y5334000D03*
G01*
X5722010Y4064000D03*
G01*
X5468010Y4064000D03*
G01*
X5214010Y4064000D03*
G01*
X4960010Y4064000D03*
D13*
G01*
X5867527Y3289172D03*
G01*
X5613527Y3289172D03*
G01*
X5359527Y3289172D03*
G01*
X5105527Y3289172D03*
G01*
X4851527Y3289172D03*
G01*
X4597527Y3289172D03*
G01*
X4343527Y3289172D03*
G01*
X4089527Y3289172D03*
G01*
X3835527Y3289172D03*
G01*
X3581527Y3289172D03*
G01*
X3327527Y3289172D03*
G01*
X3073527Y3289172D03*
G01*
X2819527Y3289172D03*
G01*
X2565527Y3289172D03*
G01*
X2311527Y3289172D03*
G01*
X2057527Y3289172D03*
G01*
X1803527Y3289172D03*
G01*
X1549527Y3289172D03*
G01*
X1295527Y3289172D03*
G01*
X1041527Y3289172D03*
G01*
X1041272Y1511427D03*
G01*
X1295272Y1511427D03*
G01*
X1549272Y1511427D03*
G01*
X1803272Y1511427D03*
G01*
X2057272Y1511427D03*
G01*
X2311272Y1511427D03*
G01*
X2565272Y1511427D03*
G01*
X2819272Y1511427D03*
G01*
X3073272Y1511427D03*
G01*
X3327272Y1511427D03*
G01*
X3581272Y1511427D03*
G01*
X3835272Y1511427D03*
G01*
X4089272Y1511427D03*
G01*
X4343272Y1511427D03*
G01*
X4597272Y1511427D03*
G01*
X4851272Y1511427D03*
G01*
X5105272Y1511427D03*
G01*
X5359272Y1511427D03*
G01*
X5613272Y1511427D03*
G01*
X5867272Y1511427D03*
D14*
G01*
X2460091Y7759700D03*
G01*
X2206091Y7759700D03*
G01*
X2714091Y7759700D03*
G01*
X2968091Y7759700D03*
M02*
